<?xml version="1.0" encoding="UTF-8"?>
<svg version="1.1" xmlns="http://www.w3.org/2000/svg" width="225" height="225">
<path d="M0 0 C74.25 0 148.5 0 225 0 C225 74.25 225 148.5 225 225 C150.75 225 76.5 225 0 225 C0 150.75 0 76.5 0 0 Z " fill="#FEFEFE" transform="translate(0,0)"/>
<path d="M0 0 C6.34857301 5.28390549 10.6325706 11.04212364 12.5625 19.125 C13.51285 29.6316472 13.33434647 39.55112156 6.5625 48.125 C7.8309375 48.88683594 7.8309375 48.88683594 9.125 49.6640625 C14.84894473 53.12868882 20.37356824 56.6256064 25.65234375 60.75 C28.47226648 62.77988303 31.49721101 64.36039983 34.58203125 65.94921875 C36.6378286 67.16972171 38.08391165 68.24401103 39.5625 70.125 C39.49038247 74.09146416 39.1667878 76.35956878 36.6875 79.5 C32.85455255 82.43107746 29.5470102 82.23375753 24.875 82.1875 C23.69550781 82.17847656 22.51601562 82.16945313 21.30078125 82.16015625 C19.94533203 82.14275391 19.94533203 82.14275391 18.5625 82.125 C18.8925 82.99125 19.2225 83.8575 19.5625 84.75 C22.16597857 93.9839204 21.30765896 104.34728368 17.5625 113.125 C16.964375 114.07375 16.36625 115.0225 15.75 116 C15.358125 116.70125 14.96625 117.4025 14.5625 118.125 C15.33722052 120.17478917 15.33722052 120.17478917 16.5625 122.125 C16.875 124.75 16.875 124.75 16.5625 127.125 C13.56953247 129.12031168 11.95815075 129.58143234 8.5 130.1875 C4.91462948 130.8028309 4.91462948 130.8028309 1.5625 132.125 C-1.07510152 132.24963392 -3.6747717 132.31016573 -6.3125 132.3125 C-7.03308594 132.32474609 -7.75367188 132.33699219 -8.49609375 132.34960938 C-12.4416984 132.36050884 -14.99941421 131.96580843 -18.4375 130.125 C-21.41775297 129.80935193 -21.41775297 129.80935193 -24.5625 129.875 C-25.61695313 129.86984375 -26.67140625 129.8646875 -27.7578125 129.859375 C-30.58925355 129.85414832 -30.58925355 129.85414832 -32.4375 132.125 C-36.0625 132.25 -36.0625 132.25 -39.4375 132.125 C-39.7675 131.465 -40.0975 130.805 -40.4375 130.125 C-37.7975 129.795 -35.1575 129.465 -32.4375 129.125 C-32.21959281 126.241025 -32.21959281 126.241025 -33.4375 123.125 C-39.10875424 118.49253986 -46.2281805 118.68365631 -53.203125 118.69140625 C-56.7115293 119.16173581 -58.64646043 119.97410712 -61.4375 122.125 C-62.32408466 124.71622743 -62.32408466 124.71622743 -62.4375 127.125 C-61.509375 126.91875 -60.58125 126.7125 -59.625 126.5 C-56.4375 126.125 -56.4375 126.125 -53.4375 128.125 C-50.46300392 128.36719315 -50.46300392 128.36719315 -47.25 128.25 C-46.16332031 128.23195312 -45.07664063 128.21390625 -43.95703125 128.1953125 C-43.12558594 128.17210937 -42.29414062 128.14890625 -41.4375 128.125 C-41.4375 128.785 -41.4375 129.445 -41.4375 130.125 C-45.83132222 132.38848417 -48.64809928 132.08288014 -53.4375 131.125 C-54.22253906 130.97675781 -55.00757812 130.82851562 -55.81640625 130.67578125 C-62.15938755 129.40311245 -62.15938755 129.40311245 -64.4375 127.125 C-64.18188677 124.7818787 -63.84479228 122.44656597 -63.4375 120.125 C-63.4375 116.93296362 -64.0183662 115.57913669 -65.375 112.75 C-69.38366681 104.38783482 -70.01733908 93.67880476 -67.4375 84.75 C-66.9425 83.450625 -66.9425 83.450625 -66.4375 82.125 C-67.31792969 82.15980469 -68.19835937 82.19460937 -69.10546875 82.23046875 C-70.26691406 82.25753906 -71.42835937 82.28460938 -72.625 82.3125 C-74.34783203 82.36470703 -74.34783203 82.36470703 -76.10546875 82.41796875 C-79.7419035 82.09823533 -81.5480914 81.30658273 -84.4375 79.125 C-84.7675 78.465 -85.0975 77.805 -85.4375 77.125 C-84.59960938 77.45242187 -83.76171875 77.77984375 -82.8984375 78.1171875 C-79.1062069 79.22147136 -76.00196457 79.32432952 -72.0625 79.25 C-70.81726563 79.23195313 -69.57203125 79.21390625 -68.2890625 79.1953125 C-66.87753906 79.16050781 -66.87753906 79.16050781 -65.4375 79.125 C-64.7775 77.475 -64.1175 75.825 -63.4375 74.125 C-62.2644139 77.64425831 -62.69179424 78.35288481 -63.875 81.75 C-66.83505181 92.06906951 -66.9015896 103.44705333 -62.80078125 113.4375 C-61.53344944 115.31239217 -61.53344944 115.31239217 -59.21484375 115.88671875 C-56.00482119 116.16212153 -52.90644803 116.06983453 -49.6875 115.9375 C-42.00548279 115.881133 -36.84345543 117.38362124 -30.875 122.1875 C-29.4375 124.125 -29.4375 124.125 -29.4375 127.125 C-25.8075 127.125 -22.1775 127.125 -18.4375 127.125 C-18.1075 125.805 -17.7775 124.485 -17.4375 123.125 C-12.03939187 117.85242927 -7.29593728 115.87355392 0.421875 115.94921875 C1.08703125 115.96597656 1.7521875 115.98273438 2.4375 116 C3.12585938 116.00902344 3.81421875 116.01804687 4.5234375 116.02734375 C6.20327838 116.05067487 7.88293746 116.08653674 9.5625 116.125 C14.76268098 104.1229823 12.84638882 85.87814794 8.984375 73.6484375 C6.26952799 66.92098693 3.01411803 60.5004401 -0.4375 54.125 C-1.09161865 54.33721191 -1.7457373 54.54942383 -2.41967773 54.76806641 C-9.57320103 56.92530769 -16.05206957 57.58577271 -23.5 57.5 C-25.0169043 57.51740234 -25.0169043 57.51740234 -26.56445312 57.53515625 C-34.11321756 57.50599167 -41.74925388 56.82371667 -48 52.25 C-50.88432945 50.91877102 -51.58498542 51.13877885 -54.5625 52 C-59.53603686 53.88910812 -63.79481137 56.78153614 -68.15234375 59.796875 C-69.28349609 60.45429688 -69.28349609 60.45429688 -70.4375 61.125 C-71.0975 60.795 -71.7575 60.465 -72.4375 60.125 C-59.08918539 49.125 -59.08918539 49.125 -53.4375 49.125 C-53.77523437 48.54492188 -54.11296875 47.96484375 -54.4609375 47.3671875 C-54.90695313 46.58601563 -55.35296875 45.80484375 -55.8125 45 C-56.25335938 44.23429687 -56.69421875 43.46859375 -57.1484375 42.6796875 C-61.75824177 33.54389358 -62.03427405 22.89582714 -58.875 13.1875 C-54.49341162 2.96884752 -47.56902566 -1.74522438 -37.4375 -5.875 C-25.58157788 -9.95124995 -9.98726847 -7.05420449 0 0 Z " fill="#B9D1F4" transform="translate(136.4375,52.875)"/>
<path d="M0 0 C8.1762497 3.65011147 14.77066718 4.20664953 23.625 4.25 C25.16994141 4.2809375 25.16994141 4.2809375 26.74609375 4.3125 C33.94501546 4.34872099 40.16424897 3.2452826 47 1 C56.24041961 14.72862342 60.55484125 29.3695695 60.375 45.875 C60.38660156 46.96296875 60.39820313 48.0509375 60.41015625 49.171875 C60.37044213 60.00059098 60.37044213 60.00059098 57 64 C53.70703125 64.69921875 53.70703125 64.69921875 49.8125 64.6875 C42.70962805 64.84643707 37.2457849 65.33679188 31.5625 70 C29.80929105 72.01403345 29.80929105 72.01403345 29 75 C25.29268066 75.28324172 21.69772844 75.44987201 18 75 C16.0625 72.6875 16.0625 72.6875 15 70 C11.59483854 66.82967726 7.61588386 65.03874254 2.90649414 64.96899414 C1.37853931 65.04826311 -0.14899469 65.1360159 -1.67602539 65.23144531 C-11.83867923 65.84276403 -11.83867923 65.84276403 -15.25 63.3671875 C-16.57518583 61.22953654 -17.36618232 59.42889573 -18 57 C-18.19078125 56.42121094 -18.3815625 55.84242188 -18.578125 55.24609375 C-19.22833864 51.78430819 -19.19055224 48.32219853 -19.1875 44.8125 C-19.1884668 43.67663452 -19.1884668 43.67663452 -19.18945312 42.51782227 C-19.13819887 37.0889478 -18.52269443 32.2342621 -17 27 C-17.33 27.33 -17.66 27.66 -18 28 C-33.35415188 29.0702626 -33.35415188 29.0702626 -39 25 C-40.3125 21.625 -40.3125 21.625 -40 18 C-35.86090532 13.95019241 -31.4545496 11.50499419 -26.25 9.0625 C-20.61982975 6.3435271 -15.21107681 3.47240136 -9.91796875 0.12890625 C-5.80234938 -2.29352552 -4.19180635 -1.90536652 0 0 Z " fill="#FDFDFD" transform="translate(89,105)"/>
<path d="M0 0 C4.58657129 1.16749087 7.26871633 3.42119346 10.4375 6.875 C12.0105127 9.7350231 12.4401815 11.89242974 12.9375 15.125 C13.1025 16.0325 13.2675 16.94 13.4375 17.875 C14.0975 18.205 14.7575 18.535 15.4375 18.875 C15.11108187 26.0725197 13.96784277 31.33633095 8.78125 36.53515625 C0.49123407 43.44916544 -9.68948092 44.38959248 -20.125 44.3125 C-21.08857422 44.33248047 -22.05214844 44.35246094 -23.04492188 44.37304688 C-32.92596739 44.366384 -40.74798937 41.48675757 -47.93359375 34.6640625 C-51.28974911 30.97792544 -52.46325049 28.06599413 -52.875 23.125 C-52.5625 19.875 -52.5625 19.875 -50.5625 17.875 C-50.10535586 15.90770118 -50.10535586 15.90770118 -49.8125 13.6875 C-48.75199701 8.59872985 -46.7170548 5.06425961 -42.5625 1.875 C-39.05440662 0.84676573 -36.90048581 0.41185106 -33.4296875 1.61328125 C-31.5625 2.875 -31.5625 2.875 -30.734375 4.828125 C-30.59515625 5.58609375 -30.4559375 6.3440625 -30.3125 7.125 C-30.15910156 7.92808594 -30.00570312 8.73117188 -29.84765625 9.55859375 C-29.5625 11.875 -29.5625 11.875 -29.75 15.1875 C-29.84574809 18.11290288 -29.84574809 18.11290288 -27.1875 20.1875 C-23.36367466 22.64567343 -21.47257069 22.99023338 -16.9375 22.9375 C-15.93460938 22.92847656 -14.93171875 22.91945313 -13.8984375 22.91015625 C-12.74214844 22.89275391 -12.74214844 22.89275391 -11.5625 22.875 C-11.5625 22.215 -11.5625 21.555 -11.5625 20.875 C-10.9128125 20.29621094 -10.263125 19.71742187 -9.59375 19.12109375 C-7.0075146 16.26131422 -7.10081537 14.73551148 -7.0625 10.9375 C-6.86587675 6.80841165 -6.76385196 5.19228187 -4.5 1.625 C-2.5625 -0.125 -2.5625 -0.125 0 0 Z " fill="#FBFBFB" transform="translate(131.5625,64.125)"/>
<path d="M0 0 C3.35815603 1.05002862 6.06185274 2.60909878 9.0859375 4.41015625 C14.90787987 7.84188133 20.80656547 11.06752121 26.82373047 14.14477539 C32.8729806 17.29866493 32.8729806 17.29866493 34.7109375 19.84765625 C34.63881997 23.81412041 34.3152253 26.08222503 31.8359375 29.22265625 C28.00299005 32.15373371 24.6954477 31.95641378 20.0234375 31.91015625 C18.25419922 31.89662109 18.25419922 31.89662109 16.44921875 31.8828125 C15.54558594 31.87121094 14.64195312 31.85960937 13.7109375 31.84765625 C14.2059375 33.14703125 14.2059375 33.14703125 14.7109375 34.47265625 C17.31441607 43.70657665 16.45609646 54.06993993 12.7109375 62.84765625 C12.1128125 63.79640625 11.5146875 64.74515625 10.8984375 65.72265625 C10.5065625 66.42390625 10.1146875 67.12515625 9.7109375 67.84765625 C10.48565802 69.89744542 10.48565802 69.89744542 11.7109375 71.84765625 C12.0234375 74.47265625 12.0234375 74.47265625 11.7109375 76.84765625 C8.71796997 78.84296793 7.10658825 79.30408859 3.6484375 79.91015625 C0.06306698 80.52548715 0.06306698 80.52548715 -3.2890625 81.84765625 C-5.92666402 81.97229017 -8.5263342 82.03282198 -11.1640625 82.03515625 C-11.88464844 82.04740234 -12.60523438 82.05964844 -13.34765625 82.07226562 C-17.2932609 82.08316509 -19.85097671 81.68846468 -23.2890625 79.84765625 C-26.26931547 79.53200818 -26.26931547 79.53200818 -29.4140625 79.59765625 C-30.46851563 79.5925 -31.52296875 79.58734375 -32.609375 79.58203125 C-35.44081605 79.57680457 -35.44081605 79.57680457 -37.2890625 81.84765625 C-40.9140625 81.97265625 -40.9140625 81.97265625 -44.2890625 81.84765625 C-44.6190625 81.18765625 -44.9490625 80.52765625 -45.2890625 79.84765625 C-42.6490625 79.51765625 -40.0090625 79.18765625 -37.2890625 78.84765625 C-37.07115531 75.96368125 -37.07115531 75.96368125 -38.2890625 72.84765625 C-43.96031674 68.21519611 -51.079743 68.40631256 -58.0546875 68.4140625 C-61.5630918 68.88439206 -63.49802293 69.69676337 -66.2890625 71.84765625 C-67.17564716 74.43888368 -67.17564716 74.43888368 -67.2890625 76.84765625 C-66.3609375 76.64140625 -65.4328125 76.43515625 -64.4765625 76.22265625 C-61.2890625 75.84765625 -61.2890625 75.84765625 -58.2890625 77.84765625 C-55.31456642 78.0898494 -55.31456642 78.0898494 -52.1015625 77.97265625 C-51.01488281 77.95460938 -49.92820313 77.9365625 -48.80859375 77.91796875 C-47.56142578 77.88316406 -47.56142578 77.88316406 -46.2890625 77.84765625 C-46.2890625 78.50765625 -46.2890625 79.16765625 -46.2890625 79.84765625 C-50.68288472 82.11114042 -53.49966178 81.80553639 -58.2890625 80.84765625 C-59.46662109 80.62529297 -59.46662109 80.62529297 -60.66796875 80.3984375 C-67.01095005 79.1257687 -67.01095005 79.1257687 -69.2890625 76.84765625 C-69.03344927 74.50453495 -68.69635478 72.16922222 -68.2890625 69.84765625 C-68.2890625 66.65561987 -68.8699287 65.30179294 -70.2265625 62.47265625 C-74.23522931 54.11049107 -74.86890158 43.40146101 -72.2890625 34.47265625 C-71.9590625 33.60640625 -71.6290625 32.74015625 -71.2890625 31.84765625 C-72.16949219 31.88246094 -73.04992187 31.91726562 -73.95703125 31.953125 C-75.11847656 31.98019531 -76.27992187 32.00726563 -77.4765625 32.03515625 C-79.19939453 32.08736328 -79.19939453 32.08736328 -80.95703125 32.140625 C-84.593466 31.82089158 -86.3996539 31.02923898 -89.2890625 28.84765625 C-89.6190625 28.18765625 -89.9490625 27.52765625 -90.2890625 26.84765625 C-89.45117188 27.17507812 -88.61328125 27.5025 -87.75 27.83984375 C-83.9577694 28.94412761 -80.85352707 29.04698577 -76.9140625 28.97265625 C-75.04621094 28.94558594 -75.04621094 28.94558594 -73.140625 28.91796875 C-71.72910156 28.88316406 -71.72910156 28.88316406 -70.2890625 28.84765625 C-69.6290625 27.19765625 -68.9690625 25.54765625 -68.2890625 23.84765625 C-67.1159764 27.36691456 -67.54335674 28.07554106 -68.7265625 31.47265625 C-71.68661431 41.79172576 -71.7531521 53.16970958 -67.65234375 63.16015625 C-66.38501194 65.03504842 -66.38501194 65.03504842 -64.06640625 65.609375 C-60.85638369 65.88477778 -57.75801053 65.79249078 -54.5390625 65.66015625 C-46.85704529 65.60378925 -41.69501793 67.10627749 -35.7265625 71.91015625 C-34.2890625 73.84765625 -34.2890625 73.84765625 -34.2890625 76.84765625 C-30.6590625 76.84765625 -27.0290625 76.84765625 -23.2890625 76.84765625 C-22.7940625 74.86765625 -22.7940625 74.86765625 -22.2890625 72.84765625 C-16.89095437 67.57508552 -12.14749978 65.59621017 -4.4296875 65.671875 C-3.76453125 65.68863281 -3.099375 65.70539063 -2.4140625 65.72265625 C-1.72570312 65.73167969 -1.03734375 65.74070312 -0.328125 65.75 C1.35171588 65.77333112 3.03137496 65.80919299 4.7109375 65.84765625 C9.91405206 53.83886785 7.98847726 35.60082591 4.1328125 23.36328125 C1.85891052 17.74099614 -0.82039436 12.36058437 -3.6796875 7.015625 C-5.2890625 3.84765625 -5.2890625 3.84765625 -5.2890625 1.84765625 C-2.2890625 -0.15234375 -2.2890625 -0.15234375 0 0 Z " fill="#B4CBEB" transform="translate(141.2890625,103.15234375)"/>
<path d="M0 0 C0.66 0.66 1.32 1.32 2 2 C1.62488281 2.57105469 1.24976563 3.14210938 0.86328125 3.73046875 C-8.27696483 18.21211808 -15.1168504 36.69881882 -13 54 C-11.95766792 57.81888908 -10.6449732 61.40162112 -9 65 C-13.61949722 64.42638693 -13.61949722 64.42638693 -15.328125 62.51171875 C-15.63234375 61.90972656 -15.9365625 61.30773437 -16.25 60.6875 C-16.56453125 60.09324219 -16.8790625 59.49898437 -17.203125 58.88671875 C-19.15865052 54.25672449 -19.19182927 49.79061423 -19.1875 44.8125 C-19.1884668 43.67663452 -19.1884668 43.67663452 -19.18945312 42.51782227 C-19.13819887 37.0889478 -18.52269443 32.2342621 -17 27 C-17.33 27.33 -17.66 27.66 -18 28 C-33.35415188 29.0702626 -33.35415188 29.0702626 -39 25 C-40.3125 21.625 -40.3125 21.625 -40 18 C-35.86090532 13.95019241 -31.4545496 11.50499419 -26.25 9.0625 C-20.61982975 6.3435271 -15.21107681 3.47240136 -9.91796875 0.12890625 C-5.88469229 -2.24505892 -4.09662213 -1.99579027 0 0 Z " fill="#B8D0F1" transform="translate(89,105)"/>
<path d="M0 0 C1.1730861 3.51925831 0.74570576 4.22788481 -0.4375 7.625 C-3.39755181 17.94406951 -3.4640896 29.32205333 0.63671875 39.3125 C1.90405056 41.18739217 1.90405056 41.18739217 4.22265625 41.76171875 C7.43267881 42.03712153 10.53105197 41.94483453 13.75 41.8125 C21.43201721 41.756133 26.59404457 43.25862124 32.5625 48.0625 C34 50 34 50 34 53 C37.63 53 41.26 53 45 53 C45.33 51.68 45.66 50.36 46 49 C51.74649569 43.38714375 56.93139639 41.75922375 64.92578125 41.82421875 C65.73402344 41.84097656 66.54226562 41.85773438 67.375 41.875 C68.20644531 41.88402344 69.03789062 41.89304688 69.89453125 41.90234375 C71.92981337 41.9257378 73.96494564 41.96160275 76 42 C80.00691565 35.27872214 81.21444329 30.83455892 81.25 22.9375 C81.25394775 22.1832373 81.25789551 21.42897461 81.26196289 20.65185547 C81.20497367 15.14446392 80.37944207 10.32942034 78.55859375 5.1015625 C78 3 78 3 79 0 C79.99 2.475 79.99 2.475 81 5 C83.20805524 5.0544452 85.41650554 5.09299283 87.625 5.125 C89.46964844 5.15980469 89.46964844 5.15980469 91.3515625 5.1953125 C94.94316041 5.0030428 97.66661175 4.30258556 101 3 C98.375 6.875 98.375 6.875 95 8 C92.77181559 8.06937062 90.54165476 8.08457084 88.3125 8.0625 C86.54326172 8.04896484 86.54326172 8.04896484 84.73828125 8.03515625 C83.83464844 8.02355469 82.93101562 8.01195312 82 8 C82.495 9.299375 82.495 9.299375 83 10.625 C85.60347857 19.8589204 84.74515896 30.22228368 81 39 C80.401875 39.94875 79.80375 40.8975 79.1875 41.875 C78.795625 42.57625 78.40375 43.2775 78 44 C78.77472052 46.04978917 78.77472052 46.04978917 80 48 C80.3125 50.625 80.3125 50.625 80 53 C77.00703247 54.99531168 75.39565075 55.45643234 71.9375 56.0625 C68.35212948 56.6778309 68.35212948 56.6778309 65 58 C62.36239848 58.12463392 59.7627283 58.18516573 57.125 58.1875 C56.40441406 58.19974609 55.68382812 58.21199219 54.94140625 58.22460938 C50.9958016 58.23550884 48.43808579 57.84080843 45 56 C42.01974703 55.68435193 42.01974703 55.68435193 38.875 55.75 C37.82054687 55.74484375 36.76609375 55.7396875 35.6796875 55.734375 C32.84824645 55.72914832 32.84824645 55.72914832 31 58 C27.375 58.125 27.375 58.125 24 58 C23.67 57.34 23.34 56.68 23 56 C25.64 55.67 28.28 55.34 31 55 C31.21790719 52.116025 31.21790719 52.116025 30 49 C24.32874576 44.36753986 17.2093195 44.55865631 10.234375 44.56640625 C6.7259707 45.03673581 4.79103957 45.84910712 2 48 C1.11341534 50.59122743 1.11341534 50.59122743 1 53 C1.928125 52.79375 2.85625 52.5875 3.8125 52.375 C7 52 7 52 10 54 C12.97449608 54.24219315 12.97449608 54.24219315 16.1875 54.125 C17.27417969 54.10695312 18.36085937 54.08890625 19.48046875 54.0703125 C20.31191406 54.04710937 21.14335938 54.02390625 22 54 C22 54.66 22 55.32 22 56 C17.60617778 58.26348417 14.78940072 57.95788014 10 57 C9.21496094 56.85175781 8.42992188 56.70351562 7.62109375 56.55078125 C1.27811245 55.27811245 1.27811245 55.27811245 -1 53 C-0.74438677 50.6568787 -0.40729228 48.32156597 0 46 C0 42.80796362 -0.5808662 41.45413669 -1.9375 38.625 C-5.94616681 30.26283482 -6.57983908 19.55380476 -4 10.625 C-3.67 9.75875 -3.34 8.8925 -3 8 C-3.88042969 8.03480469 -4.76085937 8.06960937 -5.66796875 8.10546875 C-6.82941406 8.13253906 -7.99085937 8.15960938 -9.1875 8.1875 C-10.33605469 8.22230469 -11.48460937 8.25710937 -12.66796875 8.29296875 C-16.3044035 7.97323533 -18.1105914 7.18158273 -21 5 C-21.33 4.34 -21.66 3.68 -22 3 C-20.74316406 3.49113281 -20.74316406 3.49113281 -19.4609375 3.9921875 C-15.6687069 5.09647136 -12.56446457 5.19932952 -8.625 5.125 C-6.75714844 5.09792969 -6.75714844 5.09792969 -4.8515625 5.0703125 C-3.91054687 5.04710937 -2.96953125 5.02390625 -2 5 C-1.34 3.35 -0.68 1.7 0 0 Z " fill="#1F1F1A" transform="translate(73,127)"/>
<path d="M0 0 C6.59051341 0.41190709 11.30619627 5.30619627 15.75 9.75 C22.17332196 19.02813172 22.95041858 28.01361376 22 39 C20.96136591 44.18615266 19.27378943 47.85503412 16 52 C17.32064453 52.77923828 17.32064453 52.77923828 18.66796875 53.57421875 C19.84137568 54.27826291 21.0145399 54.98271168 22.1875 55.6875 C22.76564453 56.02716797 23.34378906 56.36683594 23.93945312 56.71679688 C27.85486296 59.08373954 30.88263268 61.64780275 34 65 C28.98505437 63.20147111 24.58379213 60.46050701 20.08398438 57.65820312 C16.71898436 55.58519992 16.71898436 55.58519992 12.89453125 55.1015625 C11.4586126 55.78251361 10.03172716 56.48255428 8.609375 57.19140625 C0.95049041 60.86390419 -5.7700687 61.48903644 -14.1875 61.5 C-15.70102051 61.50882202 -15.70102051 61.50882202 -17.24511719 61.51782227 C-24.71924036 61.39496499 -32.3794935 60.6491511 -38.5625 56.125 C-41.44682945 54.79377102 -42.14748542 55.01377885 -45.125 55.875 C-50.09853686 57.76410812 -54.35731137 60.65653614 -58.71484375 63.671875 C-59.46894531 64.11015625 -60.22304687 64.5484375 -61 65 C-61.66 64.67 -62.32 64.34 -63 64 C-49.65168539 53 -49.65168539 53 -44 53 C-44.33773437 52.41992188 -44.67546875 51.83984375 -45.0234375 51.2421875 C-45.46945313 50.46101563 -45.91546875 49.67984375 -46.375 48.875 C-46.81585938 48.10929687 -47.25671875 47.34359375 -47.7109375 46.5546875 C-52.32074177 37.41889358 -52.59677405 26.77082714 -49.4375 17.0625 C-46.56953489 10.23837026 -41.85663774 4.13446297 -35 1 C-34.34 1 -33.68 1 -33 1 C-33 1.66 -33 2.32 -33 3 C-34.03125 3.474375 -35.0625 3.94875 -36.125 4.4375 C-42.15470955 7.86208149 -45.97254051 14.49369819 -48 21 C-49.19890759 30.79668101 -49.24205376 40.903543 -43 49 C-37.33324898 55.06210574 -29.61238363 58.12956158 -21.37890625 58.49609375 C-19.44000623 58.49740117 -17.50098376 58.47769598 -15.5625 58.4375 C-14.60279297 58.44458984 -13.64308594 58.45167969 -12.65429688 58.45898438 C-2.36400912 58.36890105 7.5406434 56.56932255 15 49 C20.2570425 40.52089919 20.05629063 29.87073445 18.57421875 20.23046875 C16.33567718 12.38870657 11.06528148 6.92596883 4.0625 3 C2.71654313 2.31691003 1.36514865 1.64387963 0 1 C0 0.67 0 0.34 0 0 Z " fill="#101010" transform="translate(127,49)"/>
<path d="M0 0 C3.35815603 1.05002862 6.06185274 2.60909878 9.0859375 4.41015625 C14.90787987 7.84188133 20.80656547 11.06752121 26.82373047 14.14477539 C32.94512532 17.33627893 32.94512532 17.33627893 34.7109375 19.84765625 C34.3984375 23.53515625 34.3984375 23.53515625 33.7109375 26.84765625 C31.64608526 26.61789231 29.58402632 26.36294848 27.5234375 26.09765625 C26.37488281 25.9584375 25.22632813 25.81921875 24.04296875 25.67578125 C18.6214176 24.32833829 15.65328833 20.99878852 12.2109375 16.78515625 C9.63934772 13.76339758 7.333318 11.60396195 3.7109375 9.84765625 C3.9171875 10.96140625 4.1234375 12.07515625 4.3359375 13.22265625 C4.4596875 14.41890625 4.5834375 15.61515625 4.7109375 16.84765625 C4.0509375 17.50765625 3.3909375 18.16765625 2.7109375 18.84765625 C1.37255017 16.3919545 0.04007518 13.93335709 -1.2890625 11.47265625 C-1.670625 10.77398437 -2.0521875 10.0753125 -2.4453125 9.35546875 C-5.2890625 4.07421875 -5.2890625 4.07421875 -5.2890625 1.84765625 C-2.2890625 -0.15234375 -2.2890625 -0.15234375 0 0 Z " fill="#BAD2F4" transform="translate(141.2890625,103.15234375)"/>
<path d="M0 0 C3.7291824 1.61933866 5.38376892 2.440533 6.91796875 6.31640625 C6.70619512 9.70478426 6.15707013 10.979679 3.73046875 13.31640625 C3.07046875 13.31640625 2.41046875 13.31640625 1.73046875 13.31640625 C1.73046875 13.97640625 1.73046875 14.63640625 1.73046875 15.31640625 C-8.07883401 16.92219958 -8.07883401 16.92219958 -12.83203125 14.50390625 C-17.23337889 10.55397888 -17.23337889 10.55397888 -17.70703125 7.44140625 C-17.26953125 4.31640625 -17.26953125 4.31640625 -14.89453125 2.00390625 C-9.9953886 -1.1455426 -5.59256602 -1.68450784 0 0 Z " fill="#C1AF3D" transform="translate(118.26953125,71.68359375)"/>
<path d="M0 0 C1.27746094 -0.02835938 2.55492187 -0.05671875 3.87109375 -0.0859375 C8.13947621 0.44704571 10.29279187 1.6210345 13.5625 4.375 C13.9375 7.125 13.9375 7.125 13.5625 9.375 C12.65757812 9.32279297 12.65757812 9.32279297 11.734375 9.26953125 C6.80388962 9.10253094 4.44291437 9.16362259 0.5625 12.375 C-2.5 12.5625 -2.5 12.5625 -5.4375 12.375 C-6.4275 12.375 -7.4175 12.375 -8.4375 12.375 C-11.10416667 12.375 -13.77083333 12.375 -16.4375 12.375 C-17.25 10.1875 -17.25 10.1875 -17.4375 7.375 C-12.52965252 1.16801642 -7.67153054 0.0772561 0 0 Z " fill="#EDD441" transform="translate(137.4375,170.625)"/>
<path d="M0 0 C3.32875993 1.90994422 4.01743365 2.40955526 5.375 6.125 C5.1875 8.875 5.1875 8.875 4.1875 9.875 C2.67280552 10.10692865 1.14995438 10.28715238 -0.375 10.4375 C-1.20128906 10.52128906 -2.02757813 10.60507813 -2.87890625 10.69140625 C-3.51699219 10.75199219 -4.15507813 10.81257812 -4.8125 10.875 C-4.8125 9.885 -4.8125 8.895 -4.8125 7.875 C-5.8025 8.37 -5.8025 8.37 -6.8125 8.875 C-8.43415752 8.99648305 -10.06134327 9.05043652 -11.6875 9.0625 C-12.98300781 9.08376953 -12.98300781 9.08376953 -14.3046875 9.10546875 C-16.96065189 8.8613848 -18.49057503 8.12413685 -20.8125 6.875 C-23.47959069 6.70749586 -23.47959069 6.70749586 -25.8125 6.875 C-26.1875 4.625 -26.1875 4.625 -25.8125 1.875 C-19.48093243 -5.0152353 -7.86920185 -3.49868111 0 0 Z " fill="#EFD642" transform="translate(99.8125,173.125)"/>
<path d="M0 0 C6.59051341 0.41190709 11.30619627 5.30619627 15.75 9.75 C22.17332196 19.02813172 22.95041858 28.01361376 22 39 C20.96136591 44.18615266 19.27378943 47.85503412 16 52 C16.88042969 52.51949219 17.76085937 53.03898437 18.66796875 53.57421875 C19.84137568 54.27826291 21.0145399 54.98271168 22.1875 55.6875 C22.76564453 56.02716797 23.34378906 56.36683594 23.93945312 56.71679688 C27.85486296 59.08373954 30.88263268 61.64780275 34 65 C28.98505437 63.20147111 24.58379213 60.46050701 20.08398438 57.65820312 C16.75785165 55.59695921 16.75785165 55.59695921 12.9765625 55.09765625 C11.99816406 55.54431641 11.99816406 55.54431641 11 56 C9.96746094 56.40476563 8.93492187 56.80953125 7.87109375 57.2265625 C5.57797539 58.16050604 3.28630836 59.09802085 0.99609375 60.0390625 C-2 61 -2 61 -5 60 C-4.67 59.34 -4.34 58.68 -4 58 C-2.32981111 57.51860988 -0.63699324 57.11467805 1.0625 56.75 C8.05792156 54.93974137 13.08459534 52.08936235 16.9375 45.875 C20.21580614 37.00428926 20.72897817 24.80341657 17.09765625 15.953125 C13.00008819 8.66207862 7.46704904 4.52187347 0 1 C0 0.67 0 0.34 0 0 Z " fill="#1E1F20" transform="translate(127,49)"/>
<path d="M0 0 C2 2 2 2 3 5 C5.20805524 5.0544452 7.41650554 5.09299283 9.625 5.125 C11.46964844 5.15980469 11.46964844 5.15980469 13.3515625 5.1953125 C16.94316041 5.0030428 19.66661175 4.30258556 23 3 C20.375 6.875 20.375 6.875 17 8 C14.77181559 8.06937062 12.54165476 8.08457084 10.3125 8.0625 C8.54326172 8.04896484 8.54326172 8.04896484 6.73828125 8.03515625 C5.83464844 8.02355469 4.93101562 8.01195312 4 8 C4.33 8.86625 4.66 9.7325 5 10.625 C7.60347857 19.8589204 6.74515896 30.22228368 3 39 C2.401875 39.94875 1.80375 40.8975 1.1875 41.875 C0.795625 42.57625 0.40375 43.2775 0 44 C0.77472052 46.04978917 0.77472052 46.04978917 2 48 C2.3125 50.625 2.3125 50.625 2 53 C-1 55 -1 55 -3.1875 54.625 C-3.785625 54.41875 -4.38375 54.2125 -5 54 C-2.525 53.505 -2.525 53.505 0 53 C-0.92976178 48.90641922 -0.92976178 48.90641922 -3.53125 45.8125 C-7.2578879 44.58601158 -10.85640774 44.79105854 -14.75 44.875 C-15.54277344 44.88402344 -16.33554688 44.89304688 -17.15234375 44.90234375 C-19.10169281 44.92582988 -21.05088575 44.96169863 -23 45 C-21.39441516 43.07463062 -20.52230522 42.08925833 -18.00708008 41.65942383 C-17.26868896 41.67513428 -16.53029785 41.69084473 -15.76953125 41.70703125 C-14.96708984 41.71669922 -14.16464844 41.72636719 -13.33789062 41.73632812 C-12.50451172 41.76146484 -11.67113281 41.78660156 -10.8125 41.8125 C-9.5450293 41.83280273 -9.5450293 41.83280273 -8.25195312 41.85351562 C-6.16769616 41.88884201 -4.08376723 41.94264861 -2 42 C3.84624843 32.19338973 4.50944284 21.76660997 2.328125 10.54296875 C1.81007385 8.71757153 1.25795882 6.90111758 0.65625 5.1015625 C0 3 0 3 0 0 Z " fill="#0F0F0C" transform="translate(151,127)"/>
<path d="M0 0 C5.84007723 3.00852464 10.1858558 7.73231975 14.25 12.8125 C18.37426674 16.09316672 22.86154572 16.39706403 28 17 C25.19535325 19.9321307 23.94596295 20.9716438 19.7421875 21.09765625 C17.82792969 21.08025391 17.82792969 21.08025391 15.875 21.0625 C14.59367188 21.05347656 13.31234375 21.04445312 11.9921875 21.03515625 C11.00476563 21.02355469 10.01734375 21.01195312 9 21 C7.87081967 18.62690978 6.74657935 16.25168006 5.625 13.875 C5.14933594 12.87726563 5.14933594 12.87726563 4.6640625 11.859375 C2.83324746 7.96889305 1.27033107 4.11895224 0 0 Z " fill="#F8F9F9" transform="translate(145,112)"/>
<path d="M0 0 C0.33 0.66 0.66 1.32 1 2 C-0.03102358 4.52290584 -1.11647906 6.93206361 -2.3125 9.375 C-2.63412109 10.04789063 -2.95574219 10.72078125 -3.28710938 11.4140625 C-4.82631303 14.62521428 -6.39442763 17.82145572 -8 21 C-10.22855574 21.0814222 -12.45797655 21.13938079 -14.6875 21.1875 C-16.54955078 21.23970703 -16.54955078 21.23970703 -18.44921875 21.29296875 C-22.18564321 20.9846829 -24.00629483 20.18088273 -27 18 C-24.84476949 16.92238474 -23.05372634 16.61302306 -20.6875 16.1875 C-13.65662168 14.62882044 -10.20101762 10.2626563 -5.74609375 4.90234375 C-3.97598504 2.97383605 -2.13773765 1.5015619 0 0 Z " fill="#F8F9F9" transform="translate(79,112)"/>
<path d="M0 0 C1.01320313 0.0721875 2.02640625 0.144375 3.0703125 0.21875 C4.42186751 0.31260799 5.77343043 0.40635192 7.125 0.5 C7.79015625 0.54769531 8.4553125 0.59539062 9.140625 0.64453125 C13.10235414 0.91641462 17.02938555 1.04947806 21 1 C20.690625 1.598125 20.38125 2.19625 20.0625 2.8125 C18.89790296 5.08956772 18.89790296 5.08956772 18 8 C8.30840184 9.58652496 8.30840184 9.58652496 3.375 7.375 C0.74176391 4.74176391 0.5325476 3.56215171 0 0 Z " fill="#C7B33B" transform="translate(102,79)"/>
<path d="M0 0 C0 0.66 0 1.32 0 2 C-1.03125 2.474375 -2.0625 2.94875 -3.125 3.4375 C-9.10296879 6.83269526 -13.07217776 13.50817068 -15 20 C-15.23264311 23.2757473 -15.18862876 26.53072452 -15.125 29.8125 C-15.11146484 31.13797852 -15.11146484 31.13797852 -15.09765625 32.49023438 C-15.07419637 34.66027359 -15.03832865 36.83017247 -15 39 C-15.66 39 -16.32 39 -17 39 C-20.080101 32.839798 -18.50656643 22.35812094 -16.4375 16.0625 C-13.79815502 9.78235645 -7.7360943 0 0 0 Z " fill="#1C1D20" transform="translate(94,50)"/>
<path d="M0 0 C2 2 2 2 3 5 C5.20805524 5.0544452 7.41650554 5.09299283 9.625 5.125 C11.46964844 5.15980469 11.46964844 5.15980469 13.3515625 5.1953125 C16.94316041 5.0030428 19.66661175 4.30258556 23 3 C20.375 6.875 20.375 6.875 17 8 C14.77181559 8.06937062 12.54165476 8.08457084 10.3125 8.0625 C8.54326172 8.04896484 8.54326172 8.04896484 6.73828125 8.03515625 C5.38283203 8.01775391 5.38283203 8.01775391 4 8 C4.350625 8.9075 4.70125 9.815 5.0625 10.75 C6.64354514 16.11228596 5.66351454 21.53945466 5 27 C4.67 27 4.34 27 4 27 C3.87882813 25.80503906 3.75765625 24.61007813 3.6328125 23.37890625 C2.40363936 11.59280955 2.40363936 11.59280955 0 0 Z " fill="#3A3D40" transform="translate(151,127)"/>
<path d="M0 0 C1.0725 0.226875 2.145 0.45375 3.25 0.6875 C-5.5065861 6.52522407 -13.64109872 6.01873827 -23.75 5.6875 C-23.75 5.0275 -23.75 4.3675 -23.75 3.6875 C-22.80125 3.543125 -21.8525 3.39875 -20.875 3.25 C-17.8565506 2.85814601 -17.8565506 2.85814601 -15.75 1.6875 C-15.09 2.0175 -14.43 2.3475 -13.75 2.6875 C-9.44566285 3.13490022 -9.44566285 3.13490022 -5.8125 1.125 C-3.75 -0.3125 -3.75 -0.3125 0 0 Z " fill="#373529" transform="translate(145.75,179.3125)"/>
<path d="M0 0 C0.33 0.66 0.66 1.32 1 2 C3.89589652 2.02706445 6.79153795 2.04687029 9.6875 2.0625 C10.50412109 2.07087891 11.32074219 2.07925781 12.16210938 2.08789062 C16.24499084 2.10442051 20.01651707 2.03035098 24 1 C23.75 3.875 23.75 3.875 23 7 C20.9375 8.375 20.9375 8.375 19 9 C19.99 7.35 20.98 5.7 22 4 C20.71416016 4.12568359 20.71416016 4.12568359 19.40234375 4.25390625 C8.91420441 5.18802464 8.91420441 5.18802464 4.8125 4.4375 C3.884375 4.293125 2.95625 4.14875 2 4 C1.34 4.66 0.68 5.32 0 6 C0 4.02 0 2.04 0 0 Z " fill="#756D36" transform="translate(101,76)"/>
<path d="M0 0 C2.94742361 1.33834486 5.2822419 1.21847368 8.50390625 1.1484375 C10.12039062 1.12136719 10.12039062 1.12136719 11.76953125 1.09375 C12.589375 1.07054687 13.40921875 1.04734375 14.25390625 1.0234375 C14.25390625 1.6834375 14.25390625 2.3434375 14.25390625 3.0234375 C7.46560941 6.5204389 0.30150307 3.66947485 -6.74609375 2.0234375 C-5.74609375 0.0234375 -5.74609375 0.0234375 -3.93359375 -0.7265625 C-1.74609375 -0.9765625 -1.74609375 -0.9765625 0 0 Z " fill="#34311F" transform="translate(80.74609375,179.9765625)"/>
<path d="M0 0 C5.51658831 1.57616809 9.92231424 3.92231424 14 8 C13.625 10.125 13.625 10.125 13 12 C12.525625 11.29875 12.05125 10.5975 11.5625 9.875 C8.63613916 6.59176589 5.53416902 4.55364126 1.828125 2.234375 C1.22484375 1.82703125 0.6215625 1.4196875 0 1 C0 0.67 0 0.34 0 0 Z " fill="#222426" transform="translate(162,115)"/>
<path d="M0 0 C0.99 0.33 1.98 0.66 3 1 C3 2.32 3 3.64 3 5 C3.33 5.33 3.66 5.66 4 6 C4.25 8.4375 4.25 8.4375 4 11 C1 13 1 13 -1.1875 12.625 C-1.785625 12.41875 -2.38375 12.2125 -3 12 C-1.35 11.67 0.3 11.34 2 11 C0.8905928 7.51329166 -0.26337666 4.22515763 -2 1 C-1.34 0.67 -0.68 0.34 0 0 Z " fill="#1B1B19" transform="translate(149,169)"/>
<path d="M0 0 C-0.68707031 0.47050781 -1.37414063 0.94101563 -2.08203125 1.42578125 C-3.43361328 2.35970703 -3.43361328 2.35970703 -4.8125 3.3125 C-5.70582031 3.92738281 -6.59914063 4.54226562 -7.51953125 5.17578125 C-9.56100746 6.67715037 -11.28462787 8.14785401 -13 10 C-12.70985788 6.51829452 -12.27243676 5.25771045 -9.6875 2.8125 C-3.69230769 -1.23076923 -3.69230769 -1.23076923 0 0 Z " fill="#1B1D20" transform="translate(62,117)"/>
<path d="M0 0 C0.66 0.33 1.32 0.66 2 1 C-0.05233685 3.2477975 -1.00667261 4.0022242 -4 5 C-5.89470816 5.0685495 -7.7916834 5.08480372 -9.6875 5.0625 C-10.68136719 5.05347656 -11.67523438 5.04445312 -12.69921875 5.03515625 C-13.83810547 5.01775391 -13.83810547 5.01775391 -15 5 C-15 4.67 -15 4.34 -15 4 C-14.08476562 3.79503906 -13.16953125 3.59007812 -12.2265625 3.37890625 C-11.03804687 3.10949219 -9.84953125 2.84007812 -8.625 2.5625 C-6.84996094 2.16224609 -6.84996094 2.16224609 -5.0390625 1.75390625 C-2.10505419 1.14365305 -2.10505419 1.14365305 0 0 Z " fill="#131313" transform="translate(172,130)"/>
<path d="M0 0 C0.99 0.33 1.98 0.66 3 1 C-0.18595135 3.63978826 -3.30970546 6.10498388 -7 8 C-7.66 7.67 -8.32 7.34 -9 7 C-7.57277341 5.8001722 -6.13284224 4.6154424 -4.6875 3.4375 C-3.88699219 2.77621094 -3.08648437 2.11492187 -2.26171875 1.43359375 C-1.51535156 0.96050781 -0.76898438 0.48742187 0 0 Z " fill="#252729" transform="translate(73,106)"/>
<path d="M0 0 C0 0.66 0 1.32 0 2 C-1.0725 2.5775 -2.145 3.155 -3.25 3.75 C-6.3026529 5.48375824 -8.64597393 7.3634908 -11 10 C-11 7 -11 7 -9.5390625 5.4296875 C-8.90742187 4.91664062 -8.27578125 4.40359375 -7.625 3.875 C-6.99851562 3.35679688 -6.37203125 2.83859375 -5.7265625 2.3046875 C-3.70000512 0.77330704 -2.56749236 0 0 0 Z " fill="#303236" transform="translate(94,50)"/>
<path d="M0 0 C0 0.66 0 1.32 0 2 C-2.97 2.66 -5.94 3.32 -9 4 C-8.67 3.01 -8.34 2.02 -8 1 C-5.17884816 -0.07009208 -3.09455459 0 0 0 Z " fill="#303030" transform="translate(131,106)"/>
<path d="M0 0 C0.86625 0.7734375 0.86625 0.7734375 1.75 1.5625 C-1.31890187 3.09695094 -3.95094266 2.11234289 -7.25 1.5625 C-6.25 -0.4375 -6.25 -0.4375 -4.4375 -1.25 C-2.25 -1.4375 -2.25 -1.4375 0 0 Z " fill="#454129" transform="translate(81.25,180.4375)"/>
<path d="M0 0 C2.33944736 0.28730055 4.6739143 0.61936779 7 1 C4.08235 2.9451 2.37462715 3.45276317 -1 4 C-1 1 -1 1 0 0 Z " fill="#66633C" transform="translate(142,179)"/>
<path d="M0 0 C0.66 0.66 1.32 1.32 2 2 C1.625 4.625 1.625 4.625 1 7 C0.01 6.01 -0.98 5.02 -2 4 C-1.34 2.68 -0.68 1.36 0 0 Z " fill="#BFD8FB" transform="translate(144,115)"/>
</svg>
