<?xml version="1.0" encoding="UTF-8"?>
<svg version="1.1" xmlns="http://www.w3.org/2000/svg" width="219" height="230">
<path d="M0 0 C72.27 0 144.54 0 219 0 C219 75.9 219 151.8 219 230 C146.73 230 74.46 230 0 230 C0 154.1 0 78.2 0 0 Z " fill="#FDFDFD" transform="translate(0,0)"/>
<path d="M0 0 C5.43660783 1.21855003 7.62356675 4.27095183 10.625 8.8125 C18.72288081 23.38441217 20.14416587 40.75332128 15.625 56.8125 C16.945 57.1425 18.265 57.4725 19.625 57.8125 C19.625 58.4725 19.625 59.1325 19.625 59.8125 C16.655 60.8025 16.655 60.8025 13.625 61.8125 C12.87542843 65.28397842 12.87542843 65.28397842 12.625 68.8125 C13.285 68.1525 13.945 67.4925 14.625 66.8125 C19.2220078 67.16611598 23.30599369 68.23237574 27.625 69.8125 C27.625 70.4725 27.625 71.1325 27.625 71.8125 C24.52822764 72.84475745 21.43780544 73.86901157 18.3125 74.8125 C15.48945017 75.51500112 15.48945017 75.51500112 14.625 77.8125 C17.595 77.3175 17.595 77.3175 20.625 76.8125 C21.615 78.2975 21.615 78.2975 22.625 79.8125 C23.924375 80.555 23.924375 80.555 25.25 81.3125 C26.03375 81.8075 26.8175 82.3025 27.625 82.8125 C27.625 83.8025 27.625 84.7925 27.625 85.8125 C26.2946875 85.5340625 26.2946875 85.5340625 24.9375 85.25 C21.72588598 84.82582456 19.73896356 85.15692872 16.625 85.8125 C14.3125 85.375 14.3125 85.375 12.625 84.8125 C12.2846875 85.9571875 12.2846875 85.9571875 11.9375 87.125 C10.34403821 90.3878027 8.86161664 91.27510709 5.625 92.8125 C4.965 92.8125 4.305 92.8125 3.625 92.8125 C3.5425 93.67875 3.46 94.545 3.375 95.4375 C1.94625686 101.86684411 -2.03743157 106.15660093 -7.375 109.8125 C-10.72770758 111.40673187 -14.23117663 112.59275842 -17.74609375 113.77734375 C-20.06102896 114.64175489 -22.18727567 115.6628967 -24.375 116.8125 C-25.28072754 117.2552124 -26.18645508 117.6979248 -27.11962891 118.15405273 C-30.61277369 120.43636068 -32.2917969 122.1591752 -34.375 125.8125 C-36.11041991 134.14655619 -35.45731741 142.91749793 -35.25 151.375 C-35.17820439 155.98049587 -35.13507764 160.58539057 -35.1171875 165.19140625 C-35.1102462 166.84744621 -35.1102462 166.84744621 -35.10316467 168.53694153 C-35.18254156 180.20479475 -36.52906498 191.67847071 -44.30078125 200.91796875 C-45.62790662 202.83276909 -45.62790662 202.83276909 -45.109375 205.4296875 C-44.46634944 207.8000732 -44.46634944 207.8000732 -43.3125 209.75 C-41.97819683 212.68546697 -41.91908062 214.62106432 -42.375 217.8125 C-44.83643568 220.7396127 -47.19624178 222.69332786 -50.375 224.8125 C-52.65061802 224.9466064 -54.84619415 224.81067561 -57.12109375 224.6875 C-59.67615192 224.82920167 -61.13237682 225.63979496 -63.375 226.8125 C-66.22918219 226.464429 -68.64379341 225.7229022 -71.375 224.8125 C-72.24125 224.6475 -73.1075 224.4825 -74 224.3125 C-76.375 223.8125 -76.375 223.8125 -77.375 222.8125 C-77.5363058 219.74768979 -77.35650241 217.75700722 -76.375 214.8125 C-77.3394586 212.46425298 -78.34014123 210.13058364 -79.375 207.8125 C-79.375 206.8225 -79.375 205.8325 -79.375 204.8125 C-80.4475 204.915625 -81.52 205.01875 -82.625 205.125 C-91.50465538 205.10925593 -101.16258458 200.04084469 -107.375 193.8125 C-108.5859375 191.62890625 -108.5859375 191.62890625 -109.375 189.8125 C-116.79787343 190.57062884 -122.47170939 191.43283049 -128.61328125 195.74609375 C-131.72449442 197.629378 -133.87738275 197.51202345 -137.375 196.8125 C-143.57954578 193.21281626 -146.80339415 187.68553292 -148.95703125 181.0078125 C-149.54272678 177.93154251 -149.62450889 174.94216354 -149.6875 171.8125 C-149.74357422 169.9871875 -149.74357422 169.9871875 -149.80078125 168.125 C-149.30616199 164.27695288 -148.36597475 163.17224339 -145.375 160.8125 C-142.405 161.8025 -142.405 161.8025 -139.375 162.8125 C-139.375 163.4725 -139.375 164.1325 -139.375 164.8125 C-138.90191406 164.379375 -138.42882812 163.94625 -137.94140625 163.5 C-133.42771187 159.6989942 -130.36656993 158.05920775 -124.41796875 158.46875 C-121.87992878 158.8958007 -119.6989285 159.71888659 -117.375 160.8125 C-116.385 160.8125 -115.395 160.8125 -114.375 160.8125 C-115.44889924 158.58209388 -116.48967539 156.66253987 -118 154.6875 C-120.17355129 150.14280185 -120.70852682 146.73187405 -119.375 141.8125 C-116.6619022 137.04461997 -113.08924811 132.83788111 -109.69140625 128.54980469 C-107.14741968 125.19242181 -105.27981488 121.55644649 -103.375 117.8125 C-104.10589844 117.70421875 -104.83679688 117.5959375 -105.58984375 117.484375 C-111.13348653 116.14705865 -116.19441798 112.66207849 -119.25 107.875 C-121.13526683 105.58655331 -121.13526683 105.58655331 -123.4921875 105.7265625 C-125.34870905 105.91937631 -127.20167615 106.14806094 -129.05078125 106.40234375 C-145.25025897 108.40110422 -159.96233967 106.12073805 -173.37109375 96.359375 C-180.78726675 89.81860772 -185.87561366 78.47521197 -187.375 68.8125 C-187.50073651 66.12080725 -187.47134015 63.51002432 -187.375 60.8125 C-184.405 59.8225 -181.435 58.8325 -178.375 57.8125 C-179.50983924 54.40798229 -179.92777937 54.2119436 -182.9375 52.625 C-184.071875 52.026875 -185.20625 51.42875 -186.375 50.8125 C-186.17749407 43.05590353 -184.09209514 37.91984135 -178.88671875 32.16796875 C-176.57246135 29.99723119 -174.94620144 28.8533001 -171.75 28.625 C-168.35143271 30.32428364 -167.27802093 32.55017841 -165.375 35.8125 C-164.3203125 39.29296875 -164.3203125 39.29296875 -163.5 43 C-159.22941739 60.46084477 -146.11352669 78.1792508 -130.875 87.9375 C-127.53822546 89.8521138 -127.53822546 89.8521138 -124.375 90.8125 C-124.42140625 90.00167969 -124.4678125 89.19085938 -124.515625 88.35546875 C-124.74653812 81.27138406 -124.1175799 75.85084764 -121.37109375 69.3125 C-120.44893444 66.99806095 -119.97452275 64.9443597 -119.5625 62.5 C-117.96528043 57.54021291 -115.52755361 55.75357466 -111.375 52.8125 C-110.55902344 52.21179687 -109.74304688 51.61109375 -108.90234375 50.9921875 C-104.54817237 47.85298098 -100.27821326 45.00604277 -95.375 42.8125 C-95.375 41.4925 -95.375 40.1725 -95.375 38.8125 C-94.055 38.1525 -92.735 37.4925 -91.375 36.8125 C-92.86 36.3175 -92.86 36.3175 -94.375 35.8125 C-94.045 34.8225 -93.715 33.8325 -93.375 32.8125 C-90.405 33.1425 -87.435 33.4725 -84.375 33.8125 C-84.375 32.4925 -84.375 31.1725 -84.375 29.8125 C-80.54975764 31.263454 -79.18409034 33.19431932 -77.375 36.8125 C-77.375 37.4725 -77.375 38.1325 -77.375 38.8125 C-76.64796875 38.78929687 -75.9209375 38.76609375 -75.171875 38.7421875 C-57.10766818 38.41795815 -57.10766818 38.41795815 -50.0625 42.9375 C-47.3984766 45.78738549 -44.77399286 48.65029413 -42.25 51.625 C-40.92476417 53.17110847 -39.56707444 54.68967633 -38.1875 56.1875 C-37.465625 56.97125 -36.74375 57.755 -36 58.5625 C-35.33226562 59.27921875 -34.66453125 59.9959375 -33.9765625 60.734375 C-32.36230289 62.82897528 -31.78239046 64.2284805 -31.375 66.8125 C-30.715 66.8125 -30.055 66.8125 -29.375 66.8125 C-29.21523682 65.73863037 -29.21523682 65.73863037 -29.05224609 64.64306641 C-28.30666823 61.52690571 -27.14044368 59.29423857 -25.5390625 56.5234375 C-18.6250483 44.18167233 -13.98518974 33.89407285 -12.62744141 19.82080078 C-11.83098039 13.48454518 -9.74729104 7.74112524 -6.0625 2.5625 C-3.375 0.8125 -3.375 0.8125 0 0 Z " fill="#6AD4F4" transform="translate(189.375,1.1875)"/>
<path d="M0 0 C3.39856729 1.69928364 4.47197907 3.92517841 6.375 7.1875 C7.4296875 10.66796875 7.4296875 10.66796875 8.25 14.375 C12.52058261 31.83584477 25.63647331 49.5542508 40.875 59.3125 C44.21177454 61.2271138 44.21177454 61.2271138 47.375 62.1875 C47.32859375 61.37667969 47.2821875 60.56585938 47.234375 59.73046875 C46.97182505 51.67581128 48.07628711 45.53597202 51.375 38.1875 C52.035 38.1875 52.695 38.1875 53.375 38.1875 C53.643125 37.56875 53.91125 36.95 54.1875 36.3125 C55.375 34.1875 55.375 34.1875 58.375 32.1875 C64.43882979 32.71941489 64.43882979 32.71941489 67.375 34.1875 C67.375 34.8475 67.375 35.5075 67.375 36.1875 C68.86 36.6825 68.86 36.6825 70.375 37.1875 C73.375 41.52083333 73.375 41.52083333 73.375 44.1875 C76.50356221 43.83988198 77.43625697 43.12458744 79.6875 40.8125 C84.60421589 36.01012634 88.74312758 35.00305763 95.4375 34.8125 C100.25506284 34.92130318 103.377619 35.52257933 107.375 38.1875 C107.375 34.5575 107.375 30.9275 107.375 27.1875 C107.705 27.1875 108.035 27.1875 108.375 27.1875 C108.43558594 28.18652344 108.49617188 29.18554688 108.55859375 30.21484375 C108.64238281 31.50519531 108.72617188 32.79554687 108.8125 34.125 C108.89371094 35.41277344 108.97492188 36.70054688 109.05859375 38.02734375 C109.02419188 41.04773957 109.02419188 41.04773957 110.375 42.1875 C110.44758946 44.37389453 110.45873783 46.56250389 110.4375 48.75 C110.42847656 49.94753906 110.41945313 51.14507812 110.41015625 52.37890625 C110.39855469 53.30574219 110.38695312 54.23257813 110.375 55.1875 C109.715 55.1875 109.055 55.1875 108.375 55.1875 C106.90063821 56.68016722 106.90063821 56.68016722 105.4375 58.5625 C103.45513383 61.02651524 102.06800345 62.39216437 99.375 64.1875 C98.88 65.6725 98.88 65.6725 98.375 67.1875 C100.355 67.6825 100.355 67.6825 102.375 68.1875 C101.63378906 68.39503906 100.89257812 68.60257812 100.12890625 68.81640625 C92.61083592 71.01569488 85.50880579 73.66495959 78.37719727 76.90063477 C73.7881103 78.90022388 70.38233751 79.5274237 65.375 79.1875 C66.53065651 81.72634453 66.53065651 81.72634453 68.375 84.1875 C70.91551214 85.16360842 70.91551214 85.16360842 73.375 85.1875 C73.705 84.8575 74.035 84.5275 74.375 84.1875 C82.21531166 84.97153117 89.65661239 86.99260432 96.375 91.1875 C96.705 91.8475 97.035 92.5075 97.375 93.1875 C98.035 93.1875 98.695 93.1875 99.375 93.1875 C100.2103125 92.07375 100.2103125 92.07375 101.0625 90.9375 C103.79813016 87.68431819 106.33741838 85.49063481 110.375 84.1875 C114.39987639 83.87014429 118.34746341 83.94941902 122.375 84.1875 C122.705 85.1775 123.035 86.1675 123.375 87.1875 C124.179375 87.991875 124.98375 88.79625 125.8125 89.625 C129.28127948 93.09377948 130.66717928 95.71373137 130.75 100.625 C130.6274653 107.49715444 128.7686458 115.10472117 125.2734375 121.06640625 C123.63338471 124.93835696 123.93513297 129.27445501 123.80859375 133.43164062 C123.64875432 137.17396804 123.50074336 138.99888495 121.375 142.1875 C121.375 137.2375 121.375 132.2875 121.375 127.1875 C119.993125 128.755 118.61125 130.3225 117.1875 131.9375 C109.30993064 140.87325032 109.30993064 140.87325032 105.234375 141.53515625 C97.41613192 140.47824561 90.56700375 137.28246092 85.375 131.1875 C89.50847836 126.54993891 92.10922763 124.44065447 98.375 123.1875 C99.24125 122.960625 100.1075 122.73375 101 122.5 C103.69363559 122.14557426 105.75758356 122.51445006 108.375 123.1875 C108.375 122.5275 108.375 121.8675 108.375 121.1875 C110.025 120.5275 111.675 119.8675 113.375 119.1875 C112.715 119.1875 112.055 119.1875 111.375 119.1875 C109.6657434 119.03058464 107.95748679 118.86262685 106.25 118.6875 C105.33992188 118.5946875 104.42984375 118.501875 103.4921875 118.40625 C102.79351562 118.3340625 102.09484375 118.261875 101.375 118.1875 C101.375 116.8675 101.375 115.5475 101.375 114.1875 C103.025 113.5275 104.675 112.8675 106.375 112.1875 C106.375 110.8675 106.375 109.5475 106.375 108.1875 C103.35080475 108.77553797 100.35741547 109.41428118 97.375 110.1875 C97.375 108.8675 97.375 107.5475 97.375 106.1875 C98.70833333 105.1875 100.04166667 104.1875 101.375 103.1875 C101.375 101.8675 101.375 100.5475 101.375 99.1875 C96.317969 100.48115909 93.97007294 102.49526292 90.375 106.1875 C89.385 106.1875 88.395 106.1875 87.375 106.1875 C86.715 104.2075 86.055 102.2275 85.375 100.1875 C83.725 100.8475 82.075 101.5075 80.375 102.1875 C80.725625 102.765 81.07625 103.3425 81.4375 103.9375 C82.375 106.1875 82.375 106.1875 82.1875 108.375 C81.7853125 109.2721875 81.7853125 109.2721875 81.375 110.1875 C79.89 110.6825 79.89 110.6825 78.375 111.1875 C78.045 110.1975 77.715 109.2075 77.375 108.1875 C74.31070224 106.65535112 71.7584358 106.95811452 68.375 107.1875 C65.62927272 108.66737963 65.62927272 108.66737963 63.375 110.1875 C62.715 109.8575 62.055 109.5275 61.375 109.1875 C67.125 105.1875 67.125 105.1875 69.375 105.1875 C69.2925 103.99125 69.21 102.795 69.125 101.5625 C69.125 97.07355784 70.46586733 94.66229736 73.375 91.1875 C76.03299923 88.77113706 76.72794333 88.1875 80.375 88.1875 C80.375 87.5275 80.375 86.8675 80.375 86.1875 C78.91315942 86.41610058 77.45544581 86.67120392 76 86.9375 C75.18789062 87.07671875 74.37578125 87.2159375 73.5390625 87.359375 C71.21657689 87.99376651 71.21657689 87.99376651 70.1875 90.15625 C69.7853125 91.16171875 69.7853125 91.16171875 69.375 92.1875 C67.75 93.9375 67.75 93.9375 66.375 95.1875 C67.035 93.2075 67.695 91.2275 68.375 89.1875 C67.64410156 89.07921875 66.91320312 88.9709375 66.16015625 88.859375 C60.61651347 87.52205865 55.55558202 84.03707849 52.5 79.25 C50.61473317 76.96155331 50.61473317 76.96155331 48.2578125 77.1015625 C46.40129095 77.29437631 44.54832385 77.52306094 42.69921875 77.77734375 C26.49974103 79.77610422 11.78766033 77.49573805 -1.62109375 67.734375 C-9.03726675 61.19360772 -14.12561366 49.85021197 -15.625 40.1875 C-15.75073651 37.49580725 -15.72134015 34.88502432 -15.625 32.1875 C-12.655 31.1975 -9.685 30.2075 -6.625 29.1875 C-7.75983924 25.78298229 -8.17777937 25.5869436 -11.1875 24 C-12.321875 23.401875 -13.45625 22.80375 -14.625 22.1875 C-14.42749407 14.43090353 -12.34209514 9.29484135 -7.13671875 3.54296875 C-4.82246135 1.37223119 -3.19620144 0.2283001 0 0 Z " fill="#6AD5F5" transform="translate(17.625,29.8125)"/>
<path d="M0 0 C0 0.66 0 1.32 0 2 C-1.36125 2.556875 -1.36125 2.556875 -2.75 3.125 C-6.60083434 5.34663519 -7.98857617 7.05164952 -10 11 C-10.14792874 12.37098242 -10.25093285 13.74743505 -10.3125 15.125 C-11 19 -11 19 -12.609375 20.3984375 C-14.5625 21.5 -14.5625 21.5 -18 23 C-13.48653233 20.35797014 -10.23611111 19.32124486 -5 20 C-2.5625 22 -2.5625 22 -1 24 C-0.34 23.67 0.32 23.34 1 23 C0.7525 22.13375 0.7525 22.13375 0.5 21.25 C0 19 0 19 0 15 C1.65 14.34 3.3 13.68 5 13 C5.99 16.465 5.99 16.465 7 20 C9.74561932 18.47465593 11.86886256 17.14343157 14 14.8125 C16 13 16 13 18.75 12.75 C19.4925 12.8325 20.235 12.915 21 13 C21.495 14.98 21.495 14.98 22 17 C21.175 17.61875 20.35 18.2375 19.5 18.875 C18.2625 19.926875 18.2625 19.926875 17 21 C17 21.66 17 22.32 17 23 C17.556875 22.855625 18.11375 22.71125 18.6875 22.5625 C21.11384195 21.97230872 23.54906345 21.476571 26 21 C26.495 23.475 26.495 23.475 27 26 C25.02 26.99 23.04 27.98 21 29 C21 29.66 21 30.32 21 31 C22.36125 30.9690625 22.36125 30.9690625 23.75 30.9375 C27 31 27 31 29.1875 31.5625 C31.2175204 32.22193706 31.2175204 32.22193706 34 31 C33.34 32.32 32.68 33.64 32 35 C30.68 35 29.36 35 28 35 C28 35.66 28 36.32 28 37 C27.38511719 36.97679687 26.77023438 36.95359375 26.13671875 36.9296875 C25.32847656 36.91164062 24.52023438 36.89359375 23.6875 36.875 C22.88699219 36.85179687 22.08648437 36.82859375 21.26171875 36.8046875 C18.71611424 36.84182678 18.71611424 36.84182678 16 39 C15.030625 39.28875 14.06125 39.5775 13.0625 39.875 C9.78730836 41.07813162 8.25921531 42.3932131 6 45 C11.23423496 49.8316015 16.75380616 53.41685605 23.9296875 54.40234375 C28.08779636 53.85745162 29.64855729 52.1509836 32.625 49.25 C33.54539062 48.36828125 34.46578125 47.4865625 35.4140625 46.578125 C37.61139002 44.38743593 39.8059892 42.1940108 42 40 C42 44.29 42 48.58 42 53 C42.01417969 51.98421875 42.02835937 50.9684375 42.04296875 49.921875 C42.2826694 41.69984176 43.21123523 35.28683649 46.80859375 27.75390625 C48.01073936 24.97517622 48.54751763 22.54536923 49 19.5625 C49.81315873 14.91271053 51.29328156 13.06207176 55 10 C56.35984803 8.58878594 57.71363161 7.1717123 59.0625 5.75 C61.62712155 3.04826007 63.26964079 1.56495418 67 1 C62 6 62 6 59.35961914 7.96948242 C55.8082595 12.53058198 56.34625724 16.67594202 56.43359375 22.30078125 C56.42795914 23.40995407 56.42232452 24.51912689 56.41651917 25.66191101 C56.40006646 29.21253535 56.41557242 32.7619193 56.4375 36.3125 C56.62052746 74.75622522 56.62052746 74.75622522 47.07421875 86.10546875 C45.74709338 88.02026909 45.74709338 88.02026909 46.265625 90.6171875 C46.90865056 92.9875732 46.90865056 92.9875732 48.0625 94.9375 C49.39680317 97.87296697 49.45591938 99.80856432 49 103 C46.53856432 105.9271127 44.17875822 107.88082786 41 110 C38.72438198 110.1341064 36.52880585 109.99817561 34.25390625 109.875 C31.69884808 110.01670167 30.24262318 110.82729496 28 112 C25.14581781 111.651929 22.73120659 110.9104022 20 110 C19.13375 109.835 18.2675 109.67 17.375 109.5 C15 109 15 109 14 108 C13.8386942 104.93518979 14.01849759 102.94450722 15 100 C14.0355414 97.65175298 13.03485877 95.31808364 12 93 C12 92.01 12 91.02 12 90 C10.9275 90.103125 9.855 90.20625 8.75 90.3125 C-0.12965538 90.29675593 -9.78758458 85.22834469 -16 79 C-17.2109375 76.81640625 -17.2109375 76.81640625 -18 75 C-25.42287343 75.75812884 -31.09670939 76.62033049 -37.23828125 80.93359375 C-40.34949442 82.816878 -42.50238275 82.69952345 -46 82 C-52.20454578 78.40031626 -55.42839415 72.87303292 -57.58203125 66.1953125 C-58.16772678 63.11904251 -58.24950889 60.12966354 -58.3125 57 C-58.34988281 55.783125 -58.38726562 54.56625 -58.42578125 53.3125 C-57.93116199 49.46445288 -56.99097475 48.35974339 -54 46 C-52.02 46.66 -50.04 47.32 -48 48 C-48 48.66 -48 49.32 -48 50 C-47.52691406 49.566875 -47.05382813 49.13375 -46.56640625 48.6875 C-42.05271187 44.8864942 -38.99156993 43.24670775 -33.04296875 43.65625 C-30.50492878 44.0833007 -28.3239285 44.90638659 -26 46 C-25.01 46 -24.02 46 -23 46 C-24.07389924 43.76959388 -25.11467539 41.85003987 -26.625 39.875 C-28.80109873 35.32497539 -29.32091195 31.92629963 -28 27 C-25.02251883 21.54647695 -20.96362305 16.75662542 -17 12 C-15.93652344 10.71416016 -15.93652344 10.71416016 -14.8515625 9.40234375 C-13.27378083 7.55930184 -11.65243584 5.77568382 -10 4 C-9.319375 3.175 -8.63875 2.35 -7.9375 1.5 C-5.26319821 -0.57042719 -3.28645796 -0.29876891 0 0 Z " fill="#547DB1" transform="translate(98,116)"/>
<path d="M0 0 C0 0.66 0 1.32 0 2 C-1.36125 2.556875 -1.36125 2.556875 -2.75 3.125 C-6.60083434 5.34663519 -7.98857617 7.05164952 -10 11 C-10.14792874 12.37098242 -10.25093285 13.74743505 -10.3125 15.125 C-11 19 -11 19 -12.609375 20.3984375 C-14.5625 21.5 -14.5625 21.5 -18 23 C-13.48653233 20.35797014 -10.23611111 19.32124486 -5 20 C-2.5625 22 -2.5625 22 -1 24 C-0.34 23.67 0.32 23.34 1 23 C0.7525 22.13375 0.7525 22.13375 0.5 21.25 C0 19 0 19 0 15 C1.65 14.34 3.3 13.68 5 13 C5.99 16.465 5.99 16.465 7 20 C9.74561932 18.47465593 11.86886256 17.14343157 14 14.8125 C16 13 16 13 18.75 12.75 C19.4925 12.8325 20.235 12.915 21 13 C21.495 14.98 21.495 14.98 22 17 C21.175 17.61875 20.35 18.2375 19.5 18.875 C18.2625 19.926875 18.2625 19.926875 17 21 C17 21.66 17 22.32 17 23 C17.556875 22.855625 18.11375 22.71125 18.6875 22.5625 C21.11384195 21.97230872 23.54906345 21.476571 26 21 C26.495 23.475 26.495 23.475 27 26 C25.02 26.99 23.04 27.98 21 29 C21 29.66 21 30.32 21 31 C22.36125 30.9690625 22.36125 30.9690625 23.75 30.9375 C27 31 27 31 29.1875 31.5625 C31.2175204 32.22193706 31.2175204 32.22193706 34 31 C33.34 32.32 32.68 33.64 32 35 C30.68 35 29.36 35 28 35 C28 35.66 28 36.32 28 37 C27.38511719 36.97679687 26.77023438 36.95359375 26.13671875 36.9296875 C25.32847656 36.91164062 24.52023438 36.89359375 23.6875 36.875 C22.88699219 36.85179687 22.08648437 36.82859375 21.26171875 36.8046875 C18.71611424 36.84182678 18.71611424 36.84182678 16 39 C15.030625 39.28875 14.06125 39.5775 13.0625 39.875 C9.78730836 41.07813162 8.25921531 42.3932131 6 45 C6.33 45.66 6.66 46.32 7 47 C0.40433262 50.04415418 -5.75028364 50.98596143 -13 50 C-16.3671875 48.4765625 -16.3671875 48.4765625 -19 47 C-19.38162084 56.93627604 -19.62968855 65.55806784 -13.4375 73.75 C-9.00274119 78.529314 -2.42747062 81.88371168 4 83 C6.35325778 83.06864813 8.70834657 83.08477905 11.0625 83.0625 C12.29097656 83.05347656 13.51945312 83.04445313 14.78515625 83.03515625 C15.84605469 83.02355469 16.90695313 83.01195312 18 83 C18.99 83 19.98 83 21 83 C20.01 83.61875 19.02 84.2375 18 84.875 C15.69540454 86.74139773 15.06471737 87.58441295 14.6015625 90.55859375 C14.62287348 93.06263384 14.73892222 95.51009157 15 98 C12.4345406 95.4345406 12.45953913 93.52313332 12 90 C10.9275 90.103125 9.855 90.20625 8.75 90.3125 C-0.12965538 90.29675593 -9.78758458 85.22834469 -16 79 C-17.2109375 76.81640625 -17.2109375 76.81640625 -18 75 C-25.42287343 75.75812884 -31.09670939 76.62033049 -37.23828125 80.93359375 C-40.34949442 82.816878 -42.50238275 82.69952345 -46 82 C-52.20454578 78.40031626 -55.42839415 72.87303292 -57.58203125 66.1953125 C-58.16772678 63.11904251 -58.24950889 60.12966354 -58.3125 57 C-58.34988281 55.783125 -58.38726562 54.56625 -58.42578125 53.3125 C-57.93116199 49.46445288 -56.99097475 48.35974339 -54 46 C-52.02 46.66 -50.04 47.32 -48 48 C-48 48.66 -48 49.32 -48 50 C-47.52691406 49.566875 -47.05382813 49.13375 -46.56640625 48.6875 C-42.05271187 44.8864942 -38.99156993 43.24670775 -33.04296875 43.65625 C-30.50492878 44.0833007 -28.3239285 44.90638659 -26 46 C-25.01 46 -24.02 46 -23 46 C-24.07389924 43.76959388 -25.11467539 41.85003987 -26.625 39.875 C-28.80109873 35.32497539 -29.32091195 31.92629963 -28 27 C-25.02251883 21.54647695 -20.96362305 16.75662542 -17 12 C-15.93652344 10.71416016 -15.93652344 10.71416016 -14.8515625 9.40234375 C-13.27378083 7.55930184 -11.65243584 5.77568382 -10 4 C-9.319375 3.175 -8.63875 2.35 -7.9375 1.5 C-5.26319821 -0.57042719 -3.28645796 -0.29876891 0 0 Z " fill="#5883B9" transform="translate(98,116)"/>
<path d="M0 0 C0.886875 0.309375 1.77375 0.61875 2.6875 0.9375 C7.95114791 2.88277517 7.95114791 2.88277517 13.25 2.125 C14.95308845 1.11772143 14.95308845 1.11772143 16 0 C23.84031166 0.78403117 31.28161239 2.80510432 38 7 C38.495 7.99 38.495 7.99 39 9 C39.66 9 40.32 9 41 9 C41.556875 8.2575 42.11375 7.515 42.6875 6.75 C45.42313016 3.49681819 47.96241838 1.30313481 52 0 C56.02487639 -0.31735571 59.97246341 -0.23808098 64 0 C64.495 1.485 64.495 1.485 65 3 C65.804375 3.804375 66.60875 4.60875 67.4375 5.4375 C70.90627948 8.90627948 72.29217928 11.52623137 72.375 16.4375 C72.2524653 23.30965444 70.3936458 30.91722117 66.8984375 36.87890625 C65.25838471 40.75085696 65.56013297 45.08695501 65.43359375 49.24414062 C65.27375432 52.98646804 65.12574336 54.81138495 63 58 C63 53.05 63 48.1 63 43 C61.618125 44.5675 60.23625 46.135 58.8125 47.75 C50.93493064 56.68575032 50.93493064 56.68575032 46.859375 57.34765625 C39.04113192 56.29074561 32.19200375 53.09496092 27 47 C31.13347836 42.36243891 33.73422763 40.25315447 40 39 C41.299375 38.6596875 41.299375 38.6596875 42.625 38.3125 C45.31863559 37.95807426 47.38258356 38.32695006 50 39 C50 38.34 50 37.68 50 37 C51.65 36.34 53.3 35.68 55 35 C54.34 35 53.68 35 53 35 C51.2907434 34.84308464 49.58248679 34.67512685 47.875 34.5 C46.96492188 34.4071875 46.05484375 34.314375 45.1171875 34.21875 C44.41851562 34.1465625 43.71984375 34.074375 43 34 C43 32.68 43 31.36 43 30 C44.65 29.34 46.3 28.68 48 28 C48 26.68 48 25.36 48 24 C44.97580475 24.58803797 41.98241547 25.22678118 39 26 C39 24.68 39 23.36 39 22 C40.33333333 21 41.66666667 20 43 19 C43 17.68 43 16.36 43 15 C37.942969 16.29365909 35.59507294 18.30776292 32 22 C31.01 22 30.02 22 29 22 C28.34 20.02 27.68 18.04 27 16 C25.35 16.66 23.7 17.32 22 18 C22.350625 18.5775 22.70125 19.155 23.0625 19.75 C24 22 24 22 23.8125 24.1875 C23.544375 24.785625 23.27625 25.38375 23 26 C22.01 26.33 21.02 26.66 20 27 C19.67 26.01 19.34 25.02 19 24 C15.93570224 22.46785112 13.3834358 22.77061452 10 23 C7.25427272 24.47987963 7.25427272 24.47987963 5 26 C4.34 25.67 3.68 25.34 3 25 C8.75 21 8.75 21 11 21 C10.9175 19.80375 10.835 18.6075 10.75 17.375 C10.75 12.88605784 12.09086733 10.47479736 15 7 C17.65799923 4.58363706 18.35294333 4 22 4 C22 3.34 22 2.68 22 2 C20.53815942 2.22860058 19.08044581 2.48370392 17.625 2.75 C16.81289062 2.88921875 16.00078125 3.0284375 15.1640625 3.171875 C12.84157689 3.80626651 12.84157689 3.80626651 11.8125 5.96875 C11.544375 6.6390625 11.27625 7.309375 11 8 C9.375 9.75 9.375 9.75 8 11 C8.66 9.02 9.32 7.04 10 5 C8.9171875 4.8453125 8.9171875 4.8453125 7.8125 4.6875 C4.74061475 3.93659472 2.59814146 2.78158272 0 1 C0 0.67 0 0.34 0 0 Z " fill="#B10303" transform="translate(76,114)"/>
<path d="M0 0 C0.33 0 0.66 0 1 0 C1.8131504 11.27116798 -0.67611201 24.0316279 -8 33 C-11.49132408 35.95619553 -15.18364184 38.48609493 -19 41 C-19.63679688 41.56074219 -20.27359375 42.12148437 -20.9296875 42.69921875 C-26.18326428 46.00005095 -34.27639255 44.57993162 -40.08203125 43.34375 C-47.60226327 40.90361877 -53.14056425 36.812581 -57.875 30.5 C-61.10468152 23.32292994 -61.51144634 16.83821253 -61 9 C-60.67 8.34 -60.34 7.68 -60 7 C-58.88625 7.495 -58.88625 7.495 -57.75 8 C-50.93561947 9.81716814 -44.00173487 9.73525321 -37.25 7.6875 C-34.5573551 6.98019292 -33.43560134 6.81613204 -30.84375 7.91015625 C-28.82984443 9.19890552 -26.91919241 10.57540123 -25 12 C-21.15529834 13.92235083 -18.29445855 14.45507661 -14 14 C-11.00845367 11.98746469 -11.00845367 11.98746469 -8.3125 9.25 C-7.38050781 8.36828125 -6.44851562 7.4865625 -5.48828125 6.578125 C-3.44917267 4.46539084 -1.7337784 2.355737 0 0 Z " fill="#6CD9FB" transform="translate(139,156)"/>
<path d="M0 0 C2.25 0.9375 2.25 0.9375 4.25 2.9375 C4.91674805 5.03442383 4.91674805 5.03442383 5.51171875 7.64453125 C5.73964111 8.61342285 5.96756348 9.58231445 6.20239258 10.58056641 C6.44497803 11.62647949 6.68756348 12.67239258 6.9375 13.75 C12.00363624 34.58005263 16.90657911 53.98500855 33.25 68.9375 C33.25 69.2675 33.25 69.5975 33.25 69.9375 C21.61552314 72.52527695 9.42443444 71.10442547 -0.96484375 65.0703125 C-3.63138532 63.02833256 -5.17082952 61.38323439 -6.9375 58.5625 C-7.43121094 57.77746094 -7.92492187 56.99242187 -8.43359375 56.18359375 C-10.01092259 53.49230566 -11.43445669 50.76591811 -12.75 47.9375 C-13.306875 46.885625 -13.306875 46.885625 -13.875 45.8125 C-16.03181924 41.19074448 -15.83381068 36.96614075 -15.75 31.9375 C-12.78 30.9475 -9.81 29.9575 -6.75 28.9375 C-7.88483924 25.53298229 -8.30277937 25.3369436 -11.3125 23.75 C-12.446875 23.151875 -13.58125 22.55375 -14.75 21.9375 C-14.55249407 14.18090353 -12.46709514 9.04484135 -7.26171875 3.29296875 C-4.82935322 1.01144759 -3.38486603 -0.07692877 0 0 Z " fill="#9E779E" transform="translate(17.75,30.0625)"/>
<path d="M0 0 C5.33163009 1.40306055 7.58322758 4.42948397 10.5625 8.9375 C18.30303635 22.86638071 19.99992375 39.66227648 16.33984375 55.2109375 C15.5625 56.9375 15.5625 56.9375 12.9375 58.5625 C11.761875 58.748125 11.761875 58.748125 10.5625 58.9375 C10.0675 58.4425 10.0675 58.4425 9.5625 57.9375 C5.48486229 60.80286704 3.53572935 63.36791625 1.5625 67.9375 C0.5725 67.9375 -0.4175 67.9375 -1.4375 67.9375 C-1.72625 67.133125 -2.015 66.32875 -2.3125 65.5 C-3.17012568 62.8048532 -3.17012568 62.8048532 -5.4375 61.9375 C-6.16443904 59.95861039 -6.83566251 57.95795442 -7.4375 55.9375 C-9.76615655 57.80510888 -9.76615655 57.80510888 -9.5 60.8125 C-9.479375 61.84375 -9.45875 62.875 -9.4375 63.9375 C-9.623125 64.576875 -9.80875 65.21625 -10 65.875 C-10.6627147 68.99922646 -9.97647348 71.823431 -9.4375 74.9375 C-12.7375 76.2575 -16.0375 77.5775 -19.4375 78.9375 C-18.72135417 76.59375 -18.00520833 74.25 -17.2890625 71.90625 C-15.38449904 65.26648749 -14.15449074 59.51666729 -14.1640625 52.625 C-14.14374982 51.03775367 -14.12289864 49.45051415 -14.1015625 47.86328125 C-14.07917835 45.41318984 -14.06256253 42.96337188 -14.05664062 40.51318359 C-13.94742708 13.58658491 -13.94742708 13.58658491 -6.625 3.4375 C-4.32039921 1.25449875 -3.20935988 0.87527997 0 0 Z " fill="#9E779E" transform="translate(189.4375,1.0625)"/>
<path d="M0 0 C0.99 0.33 1.98 0.66 3 1 C3.268125 1.804375 3.53625 2.60875 3.8125 3.4375 C4.80353159 6.33026976 4.80353159 6.33026976 8.125 7.3125 C9.07375 7.539375 10.0225 7.76625 11 8 C10.4225 8.20625 9.845 8.4125 9.25 8.625 C6.0573616 10.5760568 4.68827344 12.68838671 3 16 C3.73686372 19.5205711 5.18286419 21.79022833 8 24 C10.29844789 24.14702267 10.29844789 24.14702267 12.6875 23.6875 C13.49574219 23.56761719 14.30398437 23.44773437 15.13671875 23.32421875 C15.75160156 23.21722656 16.36648437 23.11023438 17 23 C16.34 24.98 15.68 26.96 15 29 C13.35 29.33 11.7 29.66 10 30 C9.9175 30.86625 9.835 31.7325 9.75 32.625 C8.31290116 39.0919448 4.31144403 43.27271056 -1 47 C-3.49412009 48.16768945 -5.86601131 49.18848632 -8.4375 50.125 C-18.66245166 53.47181187 -18.66245166 53.47181187 -26.8125 60.0625 C-27.37582031 60.75472656 -27.93914062 61.44695312 -28.51953125 62.16015625 C-29.25236328 63.07087891 -29.25236328 63.07087891 -30 64 C-32 66 -32 66 -35 67 C-35.15855469 66.40832031 -35.31710938 65.81664062 -35.48046875 65.20703125 C-37.07573563 59.80427658 -38.77461322 56.88278785 -43 53 C-43 52.01 -43 51.02 -43 50 C-41.2421875 48.421875 -41.2421875 48.421875 -38.875 46.75 C-33.47620675 42.70300413 -29.74510232 38.34179539 -25.7265625 32.94921875 C-19.15579713 24.15394876 -12.7638926 15.66430387 -2 12 C-2.33 8.7 -2.66 5.4 -3 2 C-2.01 1.34 -1.02 0.68 0 0 Z " fill="#5883B9" transform="translate(183,64)"/>
<path d="M0 0 C3.82524236 1.450954 5.19090966 3.38181932 7 7 C7 7.66 7 8.32 7 9 C7.72703125 8.97679687 8.4540625 8.95359375 9.203125 8.9296875 C27.19885614 8.6066872 27.19885614 8.6066872 34.375 13.125 C37.52380002 16.57368574 40.32410923 20.17594333 43 24 C40.45716593 22.81155966 38.78684744 21.80413008 36.6875 19.875 C34.04476399 17.77308568 34.04476399 17.77308568 30.5 17.25 C27.00030954 17.62203189 27.00030954 17.62203189 25.51171875 19.796875 C24.63736785 21.25154729 23.81247635 22.73724786 23.04296875 24.25 C22.69878906 24.8275 22.35460937 25.405 22 26 C21.34 26 20.68 26 20 26 C20 29.63 20 33.26 20 37 C19.2575 36.67 18.515 36.34 17.75 36 C9.14688323 33.70583553 1.84868428 34.23169103 -5.9296875 38.62109375 C-8.26825016 40.17866473 -10.22155622 41.81736445 -12 44 C-13.95404698 42.23205273 -15.20121946 40.66195132 -16.5625 38.375 C-17.77912906 35.88809625 -17.77912906 35.88809625 -20 35 C-20 34.34 -20 33.68 -20 33 C-25.58724667 31.64099093 -25.58724667 31.64099093 -30.93359375 33.046875 C-32.76477126 34.56157693 -32.76477126 34.56157693 -35 37 C-35.47712534 32.99214712 -35.29258269 31.40324588 -32.8828125 28.08203125 C-30.14743098 24.96639924 -27.00574531 22.59591531 -23.5625 20.3125 C-23.01529297 19.93544922 -22.46808594 19.55839844 -21.90429688 19.16992188 C-18.40233269 16.79521717 -14.8191709 14.81453821 -11 13 C-11 11.68 -11 10.36 -11 9 C-9.68 8.34 -8.36 7.68 -7 7 C-7.99 6.67 -8.98 6.34 -10 6 C-9.67 5.01 -9.34 4.02 -9 3 C-6.03 3.33 -3.06 3.66 0 4 C0 2.68 0 1.36 0 0 Z " fill="#537BAE" transform="translate(105,31)"/>
<path d="M0 0 C0 0.66 0 1.32 0 2 C-0.9075 2.37125 -1.815 2.7425 -2.75 3.125 C-6.60083434 5.34663519 -7.98857617 7.05164952 -10 11 C-10.14792874 12.37098242 -10.25093285 13.74743505 -10.3125 15.125 C-11 19 -11 19 -12.609375 20.3984375 C-14.5625 21.5 -14.5625 21.5 -18 23 C-13.48653233 20.35797014 -10.23611111 19.32124486 -5 20 C-2.5625 22 -2.5625 22 -1 24 C-0.34 23.67 0.32 23.34 1 23 C0.7525 22.13375 0.7525 22.13375 0.5 21.25 C0 19 0 19 0 15 C1.65 14.34 3.3 13.68 5 13 C5.66 15.31 6.32 17.62 7 20 C9.74561932 18.47465593 11.86886256 17.14343157 14 14.8125 C16 13 16 13 18.75 12.75 C19.4925 12.8325 20.235 12.915 21 13 C21.495 14.98 21.495 14.98 22 17 C21.175 17.61875 20.35 18.2375 19.5 18.875 C18.675 19.57625 17.85 20.2775 17 21 C17 21.66 17 22.32 17 23 C17.556875 22.855625 18.11375 22.71125 18.6875 22.5625 C21.11384195 21.97230872 23.54906345 21.476571 26 21 C26.495 23.475 26.495 23.475 27 26 C25.02 26.99 23.04 27.98 21 29 C21 29.66 21 30.32 21 31 C22.36125 30.9690625 22.36125 30.9690625 23.75 30.9375 C27 31 27 31 29.1875 31.5625 C31.2175204 32.22193706 31.2175204 32.22193706 34 31 C33.34 32.32 32.68 33.64 32 35 C30.68 35 29.36 35 28 35 C28 35.66 28 36.32 28 37 C27.38511719 36.97679687 26.77023438 36.95359375 26.13671875 36.9296875 C25.32847656 36.91164062 24.52023438 36.89359375 23.6875 36.875 C22.88699219 36.85179687 22.08648437 36.82859375 21.26171875 36.8046875 C18.71611424 36.84182678 18.71611424 36.84182678 16 39 C15.030625 39.28875 14.06125 39.5775 13.0625 39.875 C9.78730836 41.07813162 8.25921531 42.3932131 6 45 C6.33 45.66 6.66 46.32 7 47 C-1.65632912 48.64882459 -11.56938829 50.20848241 -19.25 45.1875 C-21.83821747 43.21714648 -23.16278828 41.75581759 -25 39 C-25 38.01 -25 37.02 -25 36 C-25.66 36 -26.32 36 -27 36 C-27.45930857 22.45039724 -18.79450985 13.60839766 -10 4 C-9.319375 3.175 -8.63875 2.35 -7.9375 1.5 C-5.26319821 -0.57042719 -3.28645796 -0.29876891 0 0 Z " fill="#5985BD" transform="translate(98,116)"/>
<path d="M0 0 C1.45702511 0.01004845 2.91405691 0.01917101 4.37109375 0.02734375 C7.91420329 0.04921289 11.45705812 0.08364023 15 0.125 C13.65020643 6.14385224 12.8973639 9.00676217 8 13.125 C7.113125 14.053125 6.22625 14.98125 5.3125 15.9375 C1.76322885 18.28135831 1.17137502 18.32151355 -2.8125 18.0625 C-8.83067281 17.71652335 -12.58263818 20.21220753 -17 24.125 C-17.66 25.115 -18.32 26.105 -19 27.125 C-19.99 26.795 -20.98 26.465 -22 26.125 C-22 25.465 -22 24.805 -22 24.125 C-25.89703756 22.36504755 -29.73900984 21.48546228 -33.9140625 20.6875 C-36 20.125 -36 20.125 -39 18.125 C-41.79728232 17.90416192 -43.86249262 18.08475394 -46.5625 18.875 C-49 19.125 -49 19.125 -51.3125 17.375 C-53 15.125 -53 15.125 -53 12.125 C-52.08468506 11.97804688 -52.08468506 11.97804688 -51.15087891 11.828125 C-44.77980177 10.695706 -39.2554732 8.78567312 -33.375 6.125 C-21.89226731 0.98013925 -12.43714916 -0.14957316 0 0 Z " fill="#6AD4F5" transform="translate(136,96.875)"/>
<path d="M0 0 C0.33 0 0.66 0 1 0 C0.95526983 5.013635 0.88485498 10.02607856 0.79248047 15.0390625 C0.76457351 16.73785828 0.74321151 18.43677661 0.72900391 20.13574219 C0.63170563 31.12396102 -0.303444 40.55312838 -4 51 C-4.33 51.99 -4.66 52.98 -5 54 C-4.071875 53.505 -3.14375 53.01 -2.1875 52.5 C1 51 1 51 4 51 C3.84402344 50.38511719 3.68804687 49.77023438 3.52734375 49.13671875 C3.33269531 48.32847656 3.13804687 47.52023438 2.9375 46.6875 C2.64166016 45.48673828 2.64166016 45.48673828 2.33984375 44.26171875 C2 42 2 42 3 39 C2.9071875 37.7625 2.9071875 37.7625 2.8125 36.5 C3 34 3 34 5 32.1875 C5.66 31.795625 6.32 31.40375 7 31 C7.0825 32.11375 7.165 33.2275 7.25 34.375 C7.4975 35.57125 7.745 36.7675 8 38 C9.9001177 39.24174796 9.9001177 39.24174796 12 40 C13.12890625 42.05078125 13.12890625 42.05078125 14 44 C14.29132813 43.46890625 14.58265625 42.9378125 14.8828125 42.390625 C17.70125032 37.53369441 20.08937654 34.7408131 25 32 C25.33 32.66 25.66 33.32 26 34 C26.66 33.67 27.32 33.34 28 33 C29.67654729 33.27942455 31.34608154 33.60828247 33 34 C33 34.66 33 35.32 33 36 C31.02 36.66 29.04 37.32 27 38 C26.25042843 41.47147842 26.25042843 41.47147842 26 45 C26.66 44.34 27.32 43.68 28 43 C32.5970078 43.35361598 36.68099369 44.41987574 41 46 C41 46.66 41 47.32 41 48 C37.90322764 49.03225745 34.81280544 50.05651157 31.6875 51 C28.86445017 51.70250112 28.86445017 51.70250112 28 54 C29.98 53.67 31.96 53.34 34 53 C34.66 53.99 35.32 54.98 36 56 C36.86625 56.495 37.7325 56.99 38.625 57.5 C39.40875 57.995 40.1925 58.49 41 59 C41 59.99 41 60.98 41 62 C39.6696875 61.7215625 39.6696875 61.7215625 38.3125 61.4375 C35.10088598 61.01332456 33.11396356 61.34442872 30 62 C27.6875 61.5625 27.6875 61.5625 26 61 C25.34 62.65 24.68 64.3 24 66 C23.67 65.34 23.34 64.68 23 64 C23.495 63.01 23.495 63.01 24 62 C23.278125 62.350625 22.55625 62.70125 21.8125 63.0625 C18.51633754 64.16122082 17.22178132 64.28871253 14 63 C12.09608907 61.11695385 10.60886938 59.16048174 9 57 C10.3697164 53.00499382 12.25722422 50.19990508 15 47 C13.7934375 46.38125 13.7934375 46.38125 12.5625 45.75 C10 44 10 44 9.1875 41.8125 C9.0946875 40.9153125 9.0946875 40.9153125 9 40 C7.02 40.495 7.02 40.495 5 41 C5.495 45.95 5.495 45.95 6 51 C5.28714844 51.35191406 4.57429688 51.70382813 3.83984375 52.06640625 C2.88207031 52.56011719 1.92429688 53.05382812 0.9375 53.5625 C-0.00222656 54.03816406 -0.94195312 54.51382813 -1.91015625 55.00390625 C-8.64884662 59.3572195 -13.22422044 65.40586893 -17.8125 71.875 C-22.61038599 78.47781955 -27.58855203 83.89353702 -34 89 C-34.66 88.67 -35.32 88.34 -36 88 C-35.52949219 87.64808594 -35.05898437 87.29617187 -34.57421875 86.93359375 C-30.0289526 83.32937649 -27.8681913 80.4946803 -26 75 C-25.01 75 -24.02 75 -23 75 C-22.773125 74.443125 -22.54625 73.88625 -22.3125 73.3125 C-21 71 -21 71 -18.5 68.875 C-15.06653856 64.92651935 -14.66131289 61.08322591 -14 56 C-13.67 56 -13.34 56 -13 56 C-12.67 57.65 -12.34 59.3 -12 61 C-4.19689185 46.74062154 -1.43762402 34.22558836 -2 18 C-3.81615911 21.4355788 -5.6272939 24.87378135 -7.4375 28.3125 C-7.95376953 29.28896484 -8.47003906 30.26542969 -9.00195312 31.27148438 C-9.49501953 32.20927734 -9.98808594 33.14707031 -10.49609375 34.11328125 C-10.95169678 34.97735596 -11.4072998 35.84143066 -11.87670898 36.73168945 C-13.93738729 40.89290704 -14.10803195 44.08877314 -14.0625 48.6875 C-14.05347656 49.86699219 -14.04445312 51.04648438 -14.03515625 52.26171875 C-14.02355469 53.16535156 -14.01195312 54.06898437 -14 55 C-15.22882239 52.56069585 -16.43061608 50.11075185 -17.62109375 47.65234375 C-18.22642148 46.41399356 -18.83189377 45.17571402 -19.4375 43.9375 C-19.73720703 43.31294922 -20.03691406 42.68839844 -20.34570312 42.04492188 C-21.88947869 38.90713944 -23.29203301 36.26077978 -26 34 C-25.67 33.34 -25.34 32.68 -25 32 C-24.01216806 33.07543783 -23.03506057 34.16073217 -22.0625 35.25 C-21.51722656 35.85328125 -20.97195312 36.4565625 -20.41015625 37.078125 C-18.93787201 39.08467305 -18.42470811 40.57002449 -18 43 C-17.34 43 -16.68 43 -16 43 C-15.89421631 42.2884375 -15.78843262 41.576875 -15.67944336 40.84375 C-14.92277868 37.67679699 -13.72123828 35.33730817 -12.12890625 32.5 C-11.55462891 31.44683594 -10.98035156 30.39367187 -10.38867188 29.30859375 C-9.18534359 27.12844603 -7.97201655 24.95378283 -6.74804688 22.78515625 C-2.66666475 15.24396867 -0.74024483 8.54384111 0 0 Z " fill="#567EB2" transform="translate(176,25)"/>
<path d="M0 0 C2.73167449 2.73167449 2.88129826 5.18455609 3.75 8.9375 C8.17886357 26.55425508 21.09805726 44.26210456 36.5 54.125 C39.83677454 56.0396138 39.83677454 56.0396138 43 57 C43 53.37 43 49.74 43 46 C43.33 46 43.66 46 44 46 C44.05607422 47.57587891 44.05607422 47.57587891 44.11328125 49.18359375 C44.63285233 61.19527558 46.04910477 69.55670372 54 79 C51.02307075 77.6979755 50.13310568 77.22894178 48.4375 74.3125 C46.30071149 71.78120738 46.30071149 71.78120738 43.86328125 71.8984375 C42.01387821 72.10300525 40.16755343 72.33635447 38.32421875 72.58984375 C22.20280058 74.5789729 7.21911586 72.4143369 -6.03125 62.4765625 C-11.24647601 57.78743385 -14.62422038 51.55255347 -17 45 C-16.67 44.01 -16.34 43.02 -16 42 C-15.32904297 43.44632813 -15.32904297 43.44632813 -14.64453125 44.921875 C-14.03450877 46.19822973 -13.42379487 47.47425417 -12.8125 48.75 C-12.52052734 49.38421875 -12.22855469 50.0184375 -11.92773438 50.671875 C-9.41811966 55.85301505 -6.6399565 58.8051921 -1.28125 61.23046875 C0.09546875 61.70419922 0.09546875 61.70419922 1.5 62.1875 C2.4178125 62.51105469 3.335625 62.83460937 4.28125 63.16796875 C8.96380536 64.60099216 13.16244635 65.13738952 18.0625 65.125 C19.08472656 65.12757812 20.10695312 65.13015625 21.16015625 65.1328125 C23.61649932 65.01793538 25.65768316 64.70775041 28 64 C27.5153125 63.57332031 27.030625 63.14664063 26.53125 62.70703125 C10.20136169 47.47627004 4.45746493 24.26114567 0 3 C0 2.01 0 1.02 0 0 Z " fill="#4C6E9C" transform="translate(22,35)"/>
<path d="M0 0 C0.33 0 0.66 0 1 0 C1.06058594 0.99902344 1.12117188 1.99804688 1.18359375 3.02734375 C1.26738281 4.31769531 1.35117188 5.60804687 1.4375 6.9375 C1.51871094 8.22527344 1.59992188 9.51304688 1.68359375 10.83984375 C1.64919188 13.86023957 1.64919188 13.86023957 3 15 C3.07258946 17.18639453 3.08373783 19.37500389 3.0625 21.5625 C3.05347656 22.76003906 3.04445312 23.95757812 3.03515625 25.19140625 C3.02355469 26.11824219 3.01195312 27.04507813 3 28 C2.34 28 1.68 28 1 28 C-0.47436179 29.49266722 -0.47436179 29.49266722 -1.9375 31.375 C-3.91986617 33.83901524 -5.30699655 35.20466437 -8 37 C-8.33 37.99 -8.66 38.98 -9 40 C-7.68 40.33 -6.36 40.66 -5 41 C-7.64 41.33 -10.28 41.66 -13 42 C-12.01 41.505 -12.01 41.505 -11 41 C-11 40.01 -11 39.02 -11 38 C-11.99 38.0825 -12.98 38.165 -14 38.25 C-18.63412067 38.28790692 -22.07634666 36.28285285 -26 34 C-26.66 36.31 -27.32 38.62 -28 41 C-29 39 -29 39 -28.875 35.6875 C-28.69072878 32.06870399 -28.69072878 32.06870399 -30.4375 29.6875 C-32.76606967 25.68236016 -32.7431774 21.56081522 -33 17 C-32.01 16.67 -31.02 16.34 -30 16 C-28.88625 14.824375 -28.88625 14.824375 -27.75 13.625 C-21.92383252 8.06365831 -16.63725586 7.51885746 -8.82421875 7.6953125 C-5.19791712 8.08653176 -3.01097892 8.99268072 0 11 C0 7.37 0 3.74 0 0 Z " fill="#013E71" transform="translate(125,57)"/>
<path d="M0 0 C0.33 0 0.66 0 1 0 C1.48090556 15.86988362 1.0474317 34.24748538 -10.55859375 46.66796875 C-11.03425781 47.10753906 -11.50992188 47.54710937 -12 48 C-13.32009994 49.8293373 -14.56784326 51.69553985 -15.81640625 53.57421875 C-16.20699219 54.04472656 -16.59757812 54.51523438 -17 55 C-17.66 55 -18.32 55 -19 55 C-19.103125 55.61875 -19.20625 56.2375 -19.3125 56.875 C-20 59 -20 59 -23 61 C-23.33 60.01 -23.66 59.02 -24 58 C-23.505 57.01 -23.505 57.01 -23 56 C-34.55 56 -46.1 56 -58 56 C-56.96709882 51.86839527 -56.72123355 51.38705186 -53.625 48.9375 C-51.28125058 47.05751376 -49.09045486 45.16099168 -47 43 C-44.22017379 44.3899131 -44.12536659 46.18658353 -43 49 C-38.53607998 51.23196001 -32.36257197 50.69370821 -27.671875 49.31640625 C-22.96030284 47.14944272 -19.86854224 44.38718225 -17 40 C-16.07767004 37.32476022 -15.52991472 34.7940958 -15 32 C-14.34 32.99 -13.68 33.98 -13 35 C-13.2475 33.2675 -13.2475 33.2675 -13.5 31.5 C-13.53441735 24.23793827 -9.390836 18.10758266 -6.02197266 11.89892578 C-4.62086261 9.29552542 -3.30849034 6.65091847 -2 4 C-1.33333333 2.66666667 -0.66666667 1.33333333 0 0 Z " fill="#334F6D" transform="translate(174,41)"/>
<path d="M0 0 C0.886875 0.309375 1.77375 0.61875 2.6875 0.9375 C7.95114791 2.88277517 7.95114791 2.88277517 13.25 2.125 C14.95308845 1.11772143 14.95308845 1.11772143 16 0 C23.84031166 0.78403117 31.28161239 2.80510432 38 7 C38.495 7.99 38.495 7.99 39 9 C39.99 9 40.98 9 42 9 C41 12 41 12 39 13 C42.5219721 13.08004482 45.61981469 13.04005702 49 12 C48.525625 12.556875 48.05125 13.11375 47.5625 13.6875 C45.87604004 16.18346074 45.41046893 18.0446237 45 21 C50.08303686 21.11320856 50.08303686 21.11320856 55 20 C53.00365016 24.32542465 50.89756057 28.84037965 46.75 31.375 C46.1725 31.58125 45.595 31.7875 45 32 C45.33 32.66 45.66 33.32 46 34 C44.68 33.67 43.36 33.34 42 33 C42.75 31.0625 42.75 31.0625 44 29 C46.125 28.25 46.125 28.25 48 28 C48 26.68 48 25.36 48 24 C44.97580475 24.58803797 41.98241547 25.22678118 39 26 C39 24.68 39 23.36 39 22 C40.33333333 21 41.66666667 20 43 19 C43 17.68 43 16.36 43 15 C37.942969 16.29365909 35.59507294 18.30776292 32 22 C31.01 22 30.02 22 29 22 C28.34 20.02 27.68 18.04 27 16 C25.35 16.66 23.7 17.32 22 18 C22.350625 18.5775 22.70125 19.155 23.0625 19.75 C24 22 24 22 23.8125 24.1875 C23.544375 24.785625 23.27625 25.38375 23 26 C22.01 26.33 21.02 26.66 20 27 C19.67 26.01 19.34 25.02 19 24 C15.93570224 22.46785112 13.3834358 22.77061452 10 23 C7.25427272 24.47987963 7.25427272 24.47987963 5 26 C4.34 25.67 3.68 25.34 3 25 C8.75 21 8.75 21 11 21 C10.9175 19.80375 10.835 18.6075 10.75 17.375 C10.75 12.88605784 12.09086733 10.47479736 15 7 C17.65799923 4.58363706 18.35294333 4 22 4 C22 3.34 22 2.68 22 2 C20.53815942 2.22860058 19.08044581 2.48370392 17.625 2.75 C16.81289062 2.88921875 16.00078125 3.0284375 15.1640625 3.171875 C12.84157689 3.80626651 12.84157689 3.80626651 11.8125 5.96875 C11.544375 6.6390625 11.27625 7.309375 11 8 C9.375 9.75 9.375 9.75 8 11 C8.66 9.02 9.32 7.04 10 5 C8.9171875 4.8453125 8.9171875 4.8453125 7.8125 4.6875 C4.74061475 3.93659472 2.59814146 2.78158272 0 1 C0 0.67 0 0.34 0 0 Z " fill="#9F0405" transform="translate(76,114)"/>
<path d="M0 0 C0.85271484 0.41572266 0.85271484 0.41572266 1.72265625 0.83984375 C6.56053853 3.10936783 10.67198412 4.54655184 16 5 C16 5.99 16 6.98 16 8 C15.34 8 14.68 8 14 8 C14 8.66 14 9.32 14 10 C10.48767415 11.52049516 6.96395088 13.0125926 3.4375 14.5 C2.44685547 14.92925781 1.45621094 15.35851562 0.43554688 15.80078125 C-4.95780948 18.0584653 -9.13792838 19.59196235 -15 19 C-14.319375 20.11375 -14.319375 20.11375 -13.625 21.25 C-12.31359204 23.46930578 -11.11719197 25.67967822 -10 28 C-16.23799954 27.53215003 -21.12735178 24.82199699 -25.55078125 20.4765625 C-28.69376057 16.82366029 -31 13.86336532 -31 9 C-30.16339844 9.32355469 -29.32679687 9.64710937 -28.46484375 9.98046875 C-21.52675424 12.02200354 -12.4555644 12.47533784 -5.6875 9.5625 C-4.800625 9.046875 -3.91375 8.53125 -3 8 C-2.34 7.67 -1.68 7.34 -1 7 C-0.59270772 4.67843403 -0.25561323 2.3431213 0 0 Z " fill="#476B97" transform="translate(98,90)"/>
<path d="M0 0 C6.33403727 2.05533046 8.74802781 7.30118086 11.875 12.76953125 C13.12694217 16.20531239 12.90660118 18.1324677 11.9140625 21.62109375 C9.47498506 24.06017119 8.65537308 23.97000663 5.2890625 24.05859375 C-0.29191314 23.94552044 -3.89875558 22.24596826 -8.0859375 18.62109375 C-11.29415419 15.01184997 -11.68052387 11.47787084 -11.4921875 6.78515625 C-11.0859375 4.62109375 -11.0859375 4.62109375 -9.0859375 1.49609375 C-5.56716013 -0.70314211 -3.96359541 -0.83873836 0 0 Z " fill="#030506" transform="translate(80.0859375,72.37890625)"/>
<path d="M0 0 C2.69990662 1.79993774 4.5418865 3.083773 6 6 C6.14851844 7.93359586 6.22130833 9.87342097 6.25 11.8125 C6.27578125 12.85019531 6.3015625 13.88789062 6.328125 14.95703125 C5.82751495 19.59959351 3.56490132 23.0292489 0 26 C-3.542799 27.180933 -6.28359861 27.27028374 -10 27 C-12.53065263 23.20402106 -12.36752261 20.08794111 -12.375 15.6875 C-12.41173828 14.56698242 -12.41173828 14.56698242 -12.44921875 13.42382812 C-12.47694928 8.15964828 -11.47970892 5.17176999 -8 1 C-5.14675563 -0.42662219 -3.16545451 -0.31033868 0 0 Z " fill="#030404" transform="translate(143,59)"/>
<path d="M0 0 C0.33 0 0.66 0 1 0 C0.95526983 5.013635 0.88485498 10.02607856 0.79248047 15.0390625 C0.76457351 16.73785828 0.74321151 18.43677661 0.72900391 20.13574219 C0.63170563 31.12396102 -0.303444 40.55312838 -4 51 C-4.33 51.99 -4.66 52.98 -5 54 C-4.071875 53.505 -3.14375 53.01 -2.1875 52.5 C1 51 1 51 4 51 C3.84402344 50.38511719 3.68804687 49.77023438 3.52734375 49.13671875 C3.33269531 48.32847656 3.13804687 47.52023438 2.9375 46.6875 C2.64166016 45.48673828 2.64166016 45.48673828 2.33984375 44.26171875 C2 42 2 42 3 39 C2.9071875 37.7625 2.9071875 37.7625 2.8125 36.5 C3 34 3 34 5 32.1875 C5.66 31.795625 6.32 31.40375 7 31 C7.0825 32.11375 7.165 33.2275 7.25 34.375 C7.4975 35.57125 7.745 36.7675 8 38 C9.9001177 39.24174796 9.9001177 39.24174796 12 40 C12.66 41.32 13.32 42.64 14 44 C15.65 41.36 17.3 38.72 19 36 C19.99 36.495 19.99 36.495 21 37 C19.16172132 40.15133488 17.24027294 43.11964908 15 46 C13.125 45.8125 13.125 45.8125 11 45 C9.75 42.4375 9.75 42.4375 9 40 C7.02 40.495 7.02 40.495 5 41 C5.495 45.95 5.495 45.95 6 51 C5.28714844 51.35191406 4.57429688 51.70382813 3.83984375 52.06640625 C2.88207031 52.56011719 1.92429688 53.05382812 0.9375 53.5625 C-0.00222656 54.03816406 -0.94195312 54.51382813 -1.91015625 55.00390625 C-8.64884662 59.3572195 -13.22422044 65.40586893 -17.8125 71.875 C-22.61038599 78.47781955 -27.58855203 83.89353702 -34 89 C-34.66 88.67 -35.32 88.34 -36 88 C-35.52949219 87.64808594 -35.05898437 87.29617187 -34.57421875 86.93359375 C-30.0289526 83.32937649 -27.8681913 80.4946803 -26 75 C-25.01 75 -24.02 75 -23 75 C-22.773125 74.443125 -22.54625 73.88625 -22.3125 73.3125 C-21 71 -21 71 -18.5 68.875 C-15.06653856 64.92651935 -14.66131289 61.08322591 -14 56 C-13.67 56 -13.34 56 -13 56 C-12.67 57.65 -12.34 59.3 -12 61 C-4.19689185 46.74062154 -1.43762402 34.22558836 -2 18 C-3.81615911 21.4355788 -5.6272939 24.87378135 -7.4375 28.3125 C-7.95376953 29.28896484 -8.47003906 30.26542969 -9.00195312 31.27148438 C-9.49501953 32.20927734 -9.98808594 33.14707031 -10.49609375 34.11328125 C-10.95169678 34.97735596 -11.4072998 35.84143066 -11.87670898 36.73168945 C-13.93738729 40.89290704 -14.10803195 44.08877314 -14.0625 48.6875 C-14.05347656 49.86699219 -14.04445312 51.04648438 -14.03515625 52.26171875 C-14.02355469 53.16535156 -14.01195312 54.06898437 -14 55 C-15.22882239 52.56069585 -16.43061608 50.11075185 -17.62109375 47.65234375 C-18.22642148 46.41399356 -18.83189377 45.17571402 -19.4375 43.9375 C-19.73720703 43.31294922 -20.03691406 42.68839844 -20.34570312 42.04492188 C-21.88947869 38.90713944 -23.29203301 36.26077978 -26 34 C-25.67 33.34 -25.34 32.68 -25 32 C-24.01216806 33.07543783 -23.03506057 34.16073217 -22.0625 35.25 C-21.51722656 35.85328125 -20.97195312 36.4565625 -20.41015625 37.078125 C-18.93787201 39.08467305 -18.42470811 40.57002449 -18 43 C-17.34 43 -16.68 43 -16 43 C-15.89421631 42.2884375 -15.78843262 41.576875 -15.67944336 40.84375 C-14.92277868 37.67679699 -13.72123828 35.33730817 -12.12890625 32.5 C-11.55462891 31.44683594 -10.98035156 30.39367187 -10.38867188 29.30859375 C-9.18534359 27.12844603 -7.97201655 24.95378283 -6.74804688 22.78515625 C-2.66666475 15.24396867 -0.74024483 8.54384111 0 0 Z " fill="#0E1013" transform="translate(176,25)"/>
<path d="M0 0 C0.33 0 0.66 0 1 0 C1.506664 16.71991201 -0.25631955 30.42017621 -9 45 C-9.99 45.495 -9.99 45.495 -11 46 C-11.34015925 43.98030444 -11.67179169 41.95917203 -12 39.9375 C-12.2784375 38.24947266 -12.2784375 38.24947266 -12.5625 36.52734375 C-13.48789611 29.06633758 -12.84008638 24.67046178 -9.3125 18.1875 C-8.94962891 17.49333984 -8.58675781 16.79917969 -8.21289062 16.08398438 C-7.48782365 14.69695572 -6.75762378 13.31259653 -6.02197266 11.93115234 C-4.63495697 9.31020298 -3.31545485 6.65744626 -2 4 C-1.33333333 2.66666667 -0.66666667 1.33333333 0 0 Z " fill="#5984BB" transform="translate(174,41)"/>
<path d="M0 0 C0.66 0.33 1.32 0.66 2 1 C1.67 2.32 1.34 3.64 1 5 C1.86625 4.979375 2.7325 4.95875 3.625 4.9375 C8.09305252 6.34410913 9.46531477 8.39527703 11.87109375 12.30859375 C13.76078123 16.81376564 13.6467247 21.21096267 13 26 C12.67 26.66 12.34 27.32 12 28 C14.97 27.34 17.94 26.68 21 26 C18 29 18 29 14.75 29.5625 C9.71889502 28.80783425 7.25386478 26.82712632 4 23 C-0.25836909 16.2843847 -2.13338469 9.52525034 -0.5 1.5625 C-0.335 1.046875 -0.17 0.53125 0 0 Z " fill="#033E71" transform="translate(41,169)"/>
<path d="M0 0 C0.66 0.33 1.32 0.66 2 1 C2 1.66 2 2.32 2 3 C2.99 3.33 3.98 3.66 5 4 C8.42265865 8.88951236 9.49842868 11.89424872 9 18 C8.01 18.33 7.02 18.66 6 19 C5.46375 18.071875 4.9275 17.14375 4.375 16.1875 C1.73730404 12.64743438 0.16293638 11.38764546 -4 10 C-7.64541845 10.23477199 -7.64541845 10.23477199 -11 11 C-11.99 11 -12.98 11 -14 11 C-13.54726428 6.133091 -12.35474936 3.5580675 -9 0 C-5.90914327 -1.54542837 -3.32167685 -0.59315658 0 0 Z " fill="#6BD6F7" transform="translate(83,63)"/>
<path d="M0 0 C0.639375 0.70125 1.27875 1.4025 1.9375 2.125 C9.66497382 9.8086921 17.37525982 13.08038568 28.25 13.125 C30.50013192 13.09119974 32.75018938 13.05087511 35 13 C35.99 13 36.98 13 38 13 C37.01 13.61875 36.02 14.2375 35 14.875 C32.69540454 16.74139773 32.06471737 17.58441295 31.6015625 20.55859375 C31.62287348 23.06263384 31.73892222 25.51009157 32 28 C29.4345406 25.4345406 29.45953913 23.52313332 29 20 C27.9275 20.103125 26.855 20.20625 25.75 20.3125 C16.87034462 20.29675593 7.21241542 15.22834469 1 9 C-0.65442203 6.30371094 -1.06116302 5.44852879 -0.625 2.25 C-0.41875 1.5075 -0.2125 0.765 0 0 Z " fill="#3A526C" transform="translate(81,186)"/>
<path d="M0 0 C5.4 0.48 5.4 0.48 7.875 2.625 C9.39365855 5.83105694 9.20189694 8.50045311 9 12 C9.99 12.33 10.98 12.66 12 13 C11.34 14.65 10.68 16.3 10 18 C9.67 17.34 9.34 16.68 9 16 C9.33 15.34 9.66 14.68 10 14 C9.278125 14.350625 8.55625 14.70125 7.8125 15.0625 C4.51633754 16.16122082 3.22178132 16.28871253 0 15 C-1.90391093 13.11695385 -3.39113062 11.16048174 -5 9 C-3.7508258 5.54074837 -2.32472205 2.85306797 0 0 Z " fill="#073D6C" transform="translate(190,73)"/>
<path d="M0 0 C1.6415049 3.2830098 0.51888624 6.42545033 0 10 C0.66 10 1.32 10 2 10 C2.33 10.886875 2.66 11.77375 3 12.6875 C5.68649557 17.13700828 8.00489691 19.39294037 13 21 C18.65164049 21.58469924 24.33776142 21.28954629 30 21 C26.7207097 23.96548261 24.50543227 24.40843841 20.125 24.375 C19.11695312 24.38273437 18.10890625 24.39046875 17.0703125 24.3984375 C13.54238989 23.94061548 11.08072995 22.73808346 8 21 C7.79227366 31.55115843 7.79227366 31.55115843 9 42 C6.0234375 40.515625 6.0234375 40.515625 3 38 C2.54104545 34.95254181 2.4182722 32.7502035 2.625 29.75 C2.65207031 29.00492188 2.67914063 28.25984375 2.70703125 27.4921875 C2.77749192 25.66021007 2.88511007 23.82972849 3 22 C2.34 21.67 1.68 21.34 1 21 C1.99 20.67 2.98 20.34 4 20 C2.92610076 17.76959388 1.88532461 15.85003987 0.375 13.875 C-1.62836455 9.68614684 -1.44078998 5.5774344 -1 1 C-0.67 0.67 -0.34 0.34 0 0 Z " fill="#314965" transform="translate(71,142)"/>
<path d="M0 0 C0.66 0 1.32 0 2 0 C2.36738281 0.48082031 2.73476562 0.96164063 3.11328125 1.45703125 C6.08819886 3.88993489 9.49777917 3.57471377 13.1875 3.6875 C13.93708984 3.72166016 14.68667969 3.75582031 15.45898438 3.79101562 C17.30546838 3.87334294 19.15270994 3.93835281 21 4 C21 4.33 21 4.66 21 5 C19.35 5 17.7 5 16 5 C14.12456646 8.86763446 14.12456646 8.86763446 15 13 C15.639375 13.309375 16.27875 13.61875 16.9375 13.9375 C19.45468915 15.2342338 19.96886948 16.4221737 21 19 C14.76200046 18.53215003 9.87264822 15.82199699 5.44921875 11.4765625 C2.30623943 7.82366029 0 4.86336532 0 0 Z " fill="#567FB5" transform="translate(67,99)"/>
<path d="M0 0 C0 0.66 0 1.32 0 2 C-0.9075 2.37125 -1.815 2.7425 -2.75 3.125 C-6.60083434 5.34663519 -7.98857617 7.05164952 -10 11 C-10.12423839 12.37190899 -10.2064131 13.74816681 -10.25 15.125 C-11 19 -11 19 -12.65625 20.328125 C-14.73891704 21.36945852 -16.80765915 22.21820298 -19 23 C-19.94875 23.391875 -20.8975 23.78375 -21.875 24.1875 C-22.57625 24.455625 -23.2775 24.72375 -24 25 C-24.66 25.33 -25.32 25.66 -26 26 C-22.11630557 17.74004501 -16.12762692 10.68188463 -10 4 C-9.319375 3.175 -8.63875 2.35 -7.9375 1.5 C-5.26319821 -0.57042719 -3.28645796 -0.29876891 0 0 Z " fill="#45648D" transform="translate(98,116)"/>
<path d="M0 0 C0.51240234 0.73476562 0.51240234 0.73476562 1.03515625 1.484375 C3.96145031 3.74163563 6.90293103 3.35844315 10.4375 3.25 C12.41556641 3.22679687 12.41556641 3.22679687 14.43359375 3.203125 C17.16823385 3.04737332 19.41258151 2.82056239 22 2 C19.5546615 4.96527758 17.55397653 5.55582214 13.8125 6.1875 C12.91144531 6.34605469 12.01039062 6.50460938 11.08203125 6.66796875 C10.05142578 6.83232422 10.05142578 6.83232422 9 7 C12.465 8.98 12.465 8.98 16 11 C15.67 9.68 15.34 8.36 15 7 C15.99 7 16.98 7 18 7 C18.66 6.67 19.32 6.34 20 6 C19.67 7.32 19.34 8.64 19 10 C18.34 10 17.68 10 17 10 C16.67 10.99 16.34 11.98 16 13 C8.93203883 14.3592233 8.93203883 14.3592233 5 12 C3.33637583 11.65179959 1.67004829 11.31595508 0 11 C-1 10 -1 10 -1.125 7.75 C-1.00294277 5.06474086 -0.59803839 2.61641797 0 0 Z " fill="#405D84" transform="translate(113,214)"/>
<path d="M0 0 C2.6703695 2.18959847 3.90907676 3.2756789 4.34765625 6.76953125 C3.70350784 13.64338889 2.76220582 17.88934009 -2 23 C-2.66 23 -3.32 23 -4 23 C-4 22.34 -4 21.68 -4 21 C-5.32 20.67 -6.64 20.34 -8 20 C-6.49484536 13.60309278 -6.49484536 13.60309278 -4 10.5625 C-1.32829559 7.13937872 -0.86098413 4.23317198 0 0 Z " fill="#4D73A2" transform="translate(159,73)"/>
<path d="M0 0 C0.99 0.33 1.98 0.66 3 1 C3.70211894 2.65204456 4.36971413 4.31923769 5 6 C5.66 6.33 6.32 6.66 7 7 C7 7.66 7 8.32 7 9 C9.31 9.33 11.62 9.66 14 10 C14 10.33 14 10.66 14 11 C12.40671875 11.09087891 12.40671875 11.09087891 10.78125 11.18359375 C0.36284897 11.79270238 0.36284897 11.79270238 -10 13 C-9.44243814 9.46368301 -8.35846524 8.11730658 -5.5625 5.9375 C-3.08722511 3.98931914 -1.79578076 2.69367114 0 0 Z " fill="#5681B6" transform="translate(126,84)"/>
<path d="M0 0 C0.99 0.33 1.98 0.66 3 1 C2.2884375 1.5878125 2.2884375 1.5878125 1.5625 2.1875 C-0.35179633 4.40808374 -0.61266988 6.13375709 -1 9 C4.08303686 9.11320856 4.08303686 9.11320856 9 8 C7.00365016 12.32542465 4.89756057 16.84037965 0.75 19.375 C0.1725 19.58125 -0.405 19.7875 -1 20 C-0.67 20.66 -0.34 21.32 0 22 C-1.32 21.67 -2.64 21.34 -4 21 C-3.25 19.0625 -3.25 19.0625 -2 17 C0.125 16.25 0.125 16.25 2 16 C2 14.68 2 13.36 2 12 C-1.02419525 12.58803797 -4.01758453 13.22678118 -7 14 C-7 12.68 -7 11.36 -7 10 C-5.66666667 9 -4.33333333 8 -3 7 C-3 5.68 -3 4.36 -3 3 C-4.65 3 -6.3 3 -8 3 C-8 2.67 -8 2.34 -8 2 C-6.865625 1.855625 -5.73125 1.71125 -4.5625 1.5625 C-1.19222799 1.38828522 -1.19222799 1.38828522 0 0 Z " fill="#7F0203" transform="translate(122,126)"/>
<path d="M0 0 C2 2 2 2 2.125 4.625 C2.08375 5.40875 2.0425 6.1925 2 7 C2.61875 7.2475 3.2375 7.495 3.875 7.75 C6 9 6 9 8 13 C9.65 10.36 11.3 7.72 13 5 C13.66 5.33 14.32 5.66 15 6 C13.16172132 9.15133488 11.24027294 12.11964908 9 15 C7.125 14.8125 7.125 14.8125 5 14 C3.75 11.4375 3.75 11.4375 3 9 C1.68 9.33 0.36 9.66 -1 10 C-0.67 13.3 -0.34 16.6 0 20 C-8.43461538 25.08557692 -8.43461538 25.08557692 -11.296875 24.65234375 C-11.85890625 24.43707031 -12.4209375 24.22179687 -13 24 C-11.73308493 23.32591692 -10.46129251 22.66099503 -9.1875 22 C-8.47980469 21.62875 -7.77210938 21.2575 -7.04296875 20.875 C-5 20 -5 20 -2 20 C-2.15597656 19.38511719 -2.31195313 18.77023438 -2.47265625 18.13671875 C-2.66730469 17.32847656 -2.86195313 16.52023438 -3.0625 15.6875 C-3.25972656 14.88699219 -3.45695313 14.08648437 -3.66015625 13.26171875 C-4 11 -4 11 -3 8 C-3.04125 7.175 -3.0825 6.35 -3.125 5.5 C-3 3 -3 3 -1.5 1.1875 C-1.005 0.795625 -0.51 0.40375 0 0 Z " fill="#1B1B25" transform="translate(182,56)"/>
<path d="M0 0 C2.73167449 2.73167449 2.88129826 5.18455609 3.75 8.9375 C8.06540518 26.10295001 19.41885225 39.05378868 32 51 C28.29160085 51 27.37196641 49.75821108 24.82324219 47.23925781 C24.30407227 46.70655273 23.78490234 46.17384766 23.25 45.625 C22.71793945 45.08713867 22.18587891 44.54927734 21.63769531 43.99511719 C17.1721344 39.38296643 13.41759853 34.43927654 10 29 C9.34 29.66 8.68 30.32 8 31 C6.84612191 27.14819582 5.70335272 23.29318031 4.5625 19.4375 C4.23701172 18.35146484 3.91152344 17.26542969 3.57617188 16.14648438 C1.98946064 10.76475244 0.56918574 5.58764029 0 0 Z " fill="#23272D" transform="translate(22,35)"/>
<path d="M0 0 C0 0.33 0 0.66 0 1 C-0.90492187 1.14695313 -0.90492187 1.14695313 -1.828125 1.296875 C-6.70578282 2.20946904 -9.83823388 2.87595723 -13 7 C-12.505 7.45375 -12.01 7.9075 -11.5 8.375 C-10 10 -10 10 -10 12 C-8.68 12.66 -7.36 13.32 -6 14 C-6.33 14.66 -6.66 15.32 -7 16 C-7.66 16 -8.32 16 -9 16 C-9.33 16.66 -9.66 17.32 -10 18 C-10.66 17.67 -11.32 17.34 -12 17 C-11.67 16.01 -11.34 15.02 -11 14 C-12.65 14 -14.3 14 -16 14 C-16.33 12.35 -16.66 10.7 -17 9 C-17.99 9.99 -18.98 10.98 -20 12 C-19.25 7.25 -19.25 7.25 -17 5 C-15.66666667 4.33333333 -14.33333333 3.66666667 -13 3 C-12.443125 2.46375 -11.88625 1.9275 -11.3125 1.375 C-7.72049377 -0.76078749 -4.0809221 -0.23543781 0 0 Z " fill="#141D2A" transform="translate(67,160)"/>
<path d="M0 0 C1.98 0.66 3.96 1.32 6 2 C5.67 3.32 5.34 4.64 5 6 C5.66 5.67 6.32 5.34 7 5 C5.375 10.75 5.375 10.75 2 13 C-0.1875 12.625 -0.1875 12.625 -2 12 C-2 10.68 -2 9.36 -2 8 C-2.66 8.99 -3.32 9.98 -4 11 C-4.49230769 4.6 -4.49230769 4.6 -2 1.5625 C-1.34 1.046875 -0.68 0.53125 0 0 Z " fill="#5E83B2" transform="translate(44,162)"/>
<path d="M0 0 C3.10097564 3.10097564 4.45573339 7.09642623 6.26953125 11.0546875 C9.65830845 16.82249338 14.50346913 18.99383561 20.59765625 21.1171875 C27.27550671 22.84990186 34.14263214 23.38902701 41 24 C41 24.33 41 24.66 41 25 C27.17021969 25.17263249 27.17021969 25.17263249 22.75 24.4375 C20.04705178 23.73389607 20.04705178 23.73389607 18 25 C9.46839754 20.09432859 2.8944223 12.48304149 0 3 C0 2.01 0 1.02 0 0 Z " fill="#121113" transform="translate(5,77)"/>
<path d="M0 0 C1.6415049 3.2830098 0.51888624 6.42545033 0 10 C0.66 10 1.32 10 2 10 C2.33 10.886875 2.66 11.77375 3 12.6875 C5.68649557 17.13700828 8.00489691 19.39294037 13 21 C18.65164049 21.58469924 24.33776142 21.28954629 30 21 C25.86273956 24.70486267 22.46638644 24.50571078 17.10546875 24.3359375 C11.38927938 23.71758242 7.18737956 22.22360945 3.11328125 18.08203125 C-0.64758226 13.12891264 -1.6227545 9.13772466 -1.30859375 2.96875 C-1 1 -1 1 0 0 Z " fill="#263846" transform="translate(71,142)"/>
<path d="M0 0 C0.66 0.33 1.32 0.66 2 1 C1.30132812 1.34804687 0.60265625 1.69609375 -0.1171875 2.0546875 C-4.76166253 5.12030416 -7.44071868 7.513807 -8.66992188 12.97802734 C-9.65464751 20.61621586 -9.91459259 28.30412218 -10 36 C-10.33 36 -10.66 36 -11 36 C-11.28545983 32.29351054 -11.52200956 28.58543271 -11.75 24.875 C-11.83121094 23.82828125 -11.91242188 22.7815625 -11.99609375 21.703125 C-12.26826372 16.92502991 -12.42120196 13.85772036 -10.28125 9.5 C-8.19156264 7.20993166 -6.13072682 5.10893901 -3.75 3.125 C-2.69039062 2.23167969 -2.69039062 2.23167969 -1.609375 1.3203125 C-1.07828125 0.88460937 -0.5471875 0.44890625 0 0 Z " fill="#424A54" transform="translate(163,117)"/>
<path d="M0 0 C0.886875 0.309375 1.77375 0.61875 2.6875 0.9375 C7.95114791 2.88277517 7.95114791 2.88277517 13.25 2.125 C14.95308845 1.11772143 14.95308845 1.11772143 16 0 C20.87440007 0.48744001 25.33909281 1.57319168 30 3 C30 3.33 30 3.66 30 4 C26.37 4.33 22.74 4.66 19 5 C19.99 4.67 20.98 4.34 22 4 C22 3.34 22 2.68 22 2 C20.53815942 2.22860058 19.08044581 2.48370392 17.625 2.75 C16.81289062 2.88921875 16.00078125 3.0284375 15.1640625 3.171875 C12.84157689 3.80626651 12.84157689 3.80626651 11.8125 5.96875 C11.544375 6.6390625 11.27625 7.309375 11 8 C9.375 9.75 9.375 9.75 8 11 C8.66 9.02 9.32 7.04 10 5 C8.9171875 4.8453125 8.9171875 4.8453125 7.8125 4.6875 C4.74061475 3.93659472 2.59814146 2.78158272 0 1 C0 0.67 0 0.34 0 0 Z " fill="#161E25" transform="translate(76,114)"/>
<path d="M0 0 C0 0.66 0 1.32 0 2 C-0.9075 2.37125 -1.815 2.7425 -2.75 3.125 C-6.60083434 5.34663519 -7.98857617 7.05164952 -10 11 C-10.57928541 13.70170927 -10.80895364 16.22982785 -11 19 C-11.66 18.67 -12.32 18.34 -13 18 C-13 16.02 -13 14.04 -13 12 C-13.66 11.67 -14.32 11.34 -15 11 C-14.06981474 9.53699018 -13.13055973 8.07974421 -12.1875 6.625 C-11.66542969 5.81289062 -11.14335938 5.00078125 -10.60546875 4.1640625 C-7.48770775 -0.03846693 -4.95685133 -0.2203045 0 0 Z " fill="#5984BC" transform="translate(98,116)"/>
<path d="M0 0 C0.33 0 0.66 0 1 0 C1 3.96 1 7.92 1 12 C0.34 12 -0.32 12 -1 12 C-2.7143618 13.95927063 -4.38405168 15.95880212 -6 18 C-6.66 17.67 -7.32 17.34 -8 17 C-7.67 16.67 -7.34 16.34 -7 16 C-6.76807135 14.48530552 -6.58784762 12.96245438 -6.4375 11.4375 C-6.35371094 10.61121094 -6.26992187 9.78492187 -6.18359375 8.93359375 C-6.12300781 8.29550781 -6.06242187 7.65742187 -6 7 C-2.25 5.875 -2.25 5.875 0 7 C0 4.69 0 2.38 0 0 Z " fill="#050A0F" transform="translate(127,73)"/>
<path d="M0 0 C0.66 0.66 1.32 1.32 2 2 C3.99958364 2.04080783 6.00045254 2.04254356 8 2 C9 3 9 3 9.0625 5.5625 C9.041875 6.366875 9.02125 7.17125 9 8 C7.948125 7.979375 6.89625 7.95875 5.8125 7.9375 C2.67295096 7.98896802 0.03116604 8.26517187 -3 9 C-2.01 6.03 -1.02 3.06 0 0 Z " fill="#5C88C1" transform="translate(201,77)"/>
<path d="M0 0 C0.66 0 1.32 0 2 0 C-2.60542119 10.09834542 -10.57307559 18.03327335 -19 25 C-19.66 24.67 -20.32 24.34 -21 24 C-20.52949219 23.64808594 -20.05898437 23.29617187 -19.57421875 22.93359375 C-15.0289526 19.32937649 -12.8681913 16.4946803 -11 11 C-10.01 11 -9.02 11 -8 11 C-7.773125 10.443125 -7.54625 9.88625 -7.3125 9.3125 C-5.64297946 6.37096381 -3.41324179 4.3513638 -1 2 C-0.67 1.34 -0.34 0.68 0 0 Z " fill="#0D161D" transform="translate(161,89)"/>
<path d="M0 0 C0.66 1.32 1.32 2.64 2 4 C2.66 3.34 3.32 2.68 4 2 C4.28875 3.2375 4.5775 4.475 4.875 5.75 C5.93507599 10.08529045 5.93507599 10.08529045 8 14 C10.0335948 15.26804566 10.0335948 15.26804566 12 16 C12 16.66 12 17.32 12 18 C14.97 17.34 17.94 16.68 21 16 C18 19 18 19 14.75 19.5625 C9.71149204 18.80672381 7.26508133 16.82273135 4 13 C1.25347543 8.8559791 -0.63566999 5.08535992 0 0 Z " fill="#0E1C28" transform="translate(41,179)"/>
<path d="M0 0 C4.81422597 -0.4814226 7.99579022 -0.63009241 12.1875 2 C15.56712419 5.28495685 18.30507686 9.1487446 21 13 C18.45716593 11.81155966 16.78684744 10.80413008 14.6875 8.875 C11.1471205 6.40496779 9.23535881 6.31931733 5 7 C2.06026719 9.35418376 2.06026719 9.35418376 0 12 C1.07401108 9.08482708 1.77810176 7.22189824 4 5 C6.32275177 4.59952556 8.65739357 4.2602896 11 4 C7.86835237 2.14420881 5.62777837 1.71359644 2 2 C1.01 2.495 1.01 2.495 0 3 C0 2.01 0 1.02 0 0 Z " fill="#192127" transform="translate(127,42)"/>
<path d="M0 0 C3.33333333 3.33333333 6.66666667 6.66666667 10 10 C8.68 9.67 7.36 9.34 6 9 C7.65 10.98 9.3 12.96 11 15 C6.2394963 13.55742312 2.02831543 10.98084194 -1 7 C-0.9375 3.125 -0.9375 3.125 0 0 Z " fill="#31455D" transform="translate(81,186)"/>
<path d="M0 0 C0.66 0.33 1.32 0.66 2 1 C2 2.98 2 4.96 2 7 C1.01 7 0.02 7 -1 7 C-1 7.66 -1 8.32 -1 9 C-3.64 9 -6.28 9 -9 9 C-8.34 8.34 -7.68 7.68 -7 7 C-7.99 6.67 -8.98 6.34 -10 6 C-9.67 5.01 -9.34 4.02 -9 3 C-6.03 3.33 -3.06 3.66 0 4 C0 2.68 0 1.36 0 0 Z " fill="#2A3B51" transform="translate(105,31)"/>
<path d="M0 0 C3.99301961 1.61622222 4.75622175 4.25572948 6.625 8.0625 C3.28126525 7.50521087 0.59187001 6.71076111 -2.375 5.0625 C-3.365 8.5275 -3.365 8.5275 -4.375 12.0625 C-5.55946753 9.69356495 -5.38189755 8.6558174 -5.0625 6.0625 C-4.94455078 5.010625 -4.94455078 5.010625 -4.82421875 3.9375 C-4.10299414 0.92717119 -3.0693761 0.08077306 0 0 Z " fill="#060B12" transform="translate(101.375,85.9375)"/>
<path d="M0 0 C2 1 2 1 3 3 C1.35 3.33 -0.3 3.66 -2 4 C-2 4.66 -2 5.32 -2 6 C-1.43410156 6.12117188 -0.86820312 6.24234375 -0.28515625 6.3671875 C0.44832031 6.53476562 1.18179688 6.70234375 1.9375 6.875 C2.66839844 7.03742187 3.39929688 7.19984375 4.15234375 7.3671875 C6 8 6 8 7 10 C6.41992188 9.86980469 5.83984375 9.73960938 5.2421875 9.60546875 C0.51940766 8.68390047 0.51940766 8.68390047 -3.93359375 10.046875 C-5.76477126 11.56157693 -5.76477126 11.56157693 -8 14 C-8.50361366 9.76964527 -8.20929985 8.29415114 -5.6875 4.75 C-3 2 -3 2 0 0 Z " fill="#212F3E" transform="translate(78,54)"/>
<path d="M0 0 C1.66842534 0.32441604 3.33480481 0.65939189 5 1 C5.7425 1.144375 6.485 1.28875 7.25 1.4375 C8.11625 1.7159375 8.11625 1.7159375 9 2 C9.33 2.66 9.66 3.32 10 4 C10.845625 4.474375 11.69125 4.94875 12.5625 5.4375 C13.366875 5.953125 14.17125 6.46875 15 7 C15 7.99 15 8.98 15 10 C14.113125 9.814375 13.22625 9.62875 12.3125 9.4375 C9.10093668 8.8247319 9.10093668 8.8247319 6.375 9.5625 C3.51892157 10.08861971 2.41142117 9.51830222 0 8 C2.86177057 6.56911472 4.93375773 7.40008303 8 8 C7.67 6.35 7.34 4.7 7 3 C5.02 3 3.04 3 1 3 C0.67 2.01 0.34 1.02 0 0 Z " fill="#253951" transform="translate(202,77)"/>
<path d="M0 0 C0.33 0 0.66 0 1 0 C1.05607422 1.57587891 1.05607422 1.57587891 1.11328125 3.18359375 C1.63285233 15.19527558 3.04910477 23.55670372 11 33 C7.22039167 31.29917625 5.58344976 29.22931221 3 26 C0.88339573 24.68834743 0.88339573 24.68834743 -1 24 C-0.01 24 0.98 24 2 24 C1.55005243 22.20620902 1.08975857 20.41501072 0.625 18.625 C0.36976562 17.62726563 0.11453125 16.62953125 -0.1484375 15.6015625 C-0.82404319 12.87458985 -0.82404319 12.87458985 -3 11 C-2.01 11 -1.02 11 0 11 C0 7.37 0 3.74 0 0 Z " fill="#07090C" transform="translate(65,81)"/>
<path d="M0 0 C0.33 0.66 0.66 1.32 1 2 C0.67 2.66 0.34 3.32 0 4 C-0.66 4 -1.32 4 -2 4 C-2.33 4.99 -2.66 5.98 -3 7 C-9.4 8.35384615 -9.4 8.35384615 -12.4375 6.5625 C-12.953125 6.046875 -13.46875 5.53125 -14 5 C-13.67 4.01 -13.34 3.02 -13 2 C-6.375 2.75 -6.375 2.75 -3 5 C-3.33 3.68 -3.66 2.36 -4 1 C-3.01 1 -2.02 1 -1 1 C-0.67 0.67 -0.34 0.34 0 0 Z " fill="#0F263E" transform="translate(132,220)"/>
<path d="M0 0 C2.67773194 3.96346831 2.30258374 8.09111792 2.25 12.6875 C2.24613281 13.49171387 2.24226562 14.29592773 2.23828125 15.12451172 C2.15748788 20.66446789 1.58052948 25.665713 0 31 C-0.99 30.34 -1.98 29.68 -3 29 C-2.7834375 28.49855469 -2.566875 27.99710938 -2.34375 27.48046875 C0.94925793 18.53141479 0.26015115 9.38471186 0 0 Z " fill="#15141A" transform="translate(205,26)"/>
<path d="M0 0 C0.66 0 1.32 0 2 0 C0.00365016 4.32542465 -2.10243943 8.84037965 -6.25 11.375 C-6.8275 11.58125 -7.405 11.7875 -8 12 C-7.67 12.66 -7.34 13.32 -7 14 C-8.32 13.67 -9.64 13.34 -11 13 C-10.25 11.0625 -10.25 11.0625 -9 9 C-6.875 8.25 -6.875 8.25 -5 8 C-5 6.68 -5 5.36 -5 4 C-6.32 3.34 -7.64 2.68 -9 2 C-6.94921875 1.77213542 -4.8984375 1.54427083 -2.84765625 1.31640625 C-0.98859771 1.18113386 -0.98859771 1.18113386 0 0 Z " fill="#251F33" transform="translate(129,134)"/>
<path d="M0 0 C0.66 0.33 1.32 0.66 2 1 C1.01 1.61875 0.02 2.2375 -1 2.875 C-3.30459546 4.74139773 -3.93528263 5.58441295 -4.3984375 8.55859375 C-4.37712652 11.06263384 -4.26107778 13.51009157 -4 16 C-6.5654594 13.4345406 -6.54046087 11.52313332 -7 8 C-8.65 8 -10.3 8 -12 8 C-12 7.67 -12 7.34 -12 7 C-10.02 7 -8.04 7 -6 7 C-6.33 6.01 -6.66 5.02 -7 4 C-9.31 3.67 -11.62 3.34 -14 3 C-14 2.67 -14 2.34 -14 2 C-13.07316406 1.93941406 -12.14632812 1.87882813 -11.19140625 1.81640625 C-9.39509766 1.69072266 -9.39509766 1.69072266 -7.5625 1.5625 C-5.77005859 1.44068359 -5.77005859 1.44068359 -3.94140625 1.31640625 C-1.11429756 1.32343886 -1.11429756 1.32343886 0 0 Z " fill="#1C2C36" transform="translate(117,198)"/>
<path d="M0 0 C3.06189456 3.06189456 3.43157638 7.13053398 4.41210938 11.23828125 C5.4757485 15.50131298 7.03857751 19.08849272 9 23 C8.6875 25.875 8.6875 25.875 8 28 C6.10076592 25.15114887 5.3748839 23.24973979 4.4921875 20 C4.22792969 19.030625 3.96367187 18.06125 3.69140625 17.0625 C3.28728516 15.5465625 3.28728516 15.5465625 2.875 14 C2.59785156 12.989375 2.32070313 11.97875 2.03515625 10.9375 C0 3.39839901 0 3.39839901 0 0 Z " fill="#181618" transform="translate(22,35)"/>
<path d="M0 0 C2.64 0.66 5.28 1.32 8 2 C8 2.66 8 3.32 8 4 C9.65 4.33 11.3 4.66 13 5 C13 5.99 13 6.98 13 8 C9.0802591 7.21605182 5.56896879 5.7844844 2 4 C0.5625 1.8125 0.5625 1.8125 0 0 Z " fill="#4C72A2" transform="translate(87,195)"/>
<path d="M0 0 C3.25696479 0.41755959 4.63443291 0.63443291 7 3 C7 4.32 7 5.64 7 7 C4.125 6.8125 4.125 6.8125 1 6 C-0.375 3.4375 -0.375 3.4375 -1 1 C-0.67 0.67 -0.34 0.34 0 0 Z " fill="#EBEBEB" transform="translate(77,76)"/>
<path d="M0 0 C1.67542976 0.28604898 3.34385343 0.61781233 5 1 C5 2.32 5 3.64 5 5 C2.29120665 6.35439668 -0.00933268 6.06501451 -3 6 C-1.125 1.125 -1.125 1.125 0 0 Z " fill="#0E3153" transform="translate(136,220)"/>
<path d="M0 0 C6.20245049 1.64447537 12.23034357 2.29619674 18.625 2.625 C18.625 2.955 18.625 3.285 18.625 3.625 C4.79521969 3.79763249 4.79521969 3.79763249 0.375 3.0625 C-2.32794822 2.35889607 -2.32794822 2.35889607 -4.375 3.625 C-5.365 2.305 -6.355 0.985 -7.375 -0.375 C-4.52053992 -1.80223004 -3.0383048 -0.86922631 0 0 Z " fill="#171C28" transform="translate(27.375,98.375)"/>
<path d="M0 0 C1.32 0 2.64 0 4 0 C3.67 2.31 3.34 4.62 3 7 C1.68 7.33 0.36 7.66 -1 8 C-1.625 5.6875 -1.625 5.6875 -2 3 C-1.34 2.01 -0.68 1.02 0 0 Z " fill="#F3F3F3" transform="translate(135,65)"/>
<path d="M0 0 C0.66 0.66 1.32 1.32 2 2 C2.66 1.67 3.32 1.34 4 1 C5.67654729 1.27942455 7.34608154 1.60828247 9 2 C9 2.66 9 3.32 9 4 C8.030625 4.268125 7.06125 4.53625 6.0625 4.8125 C5.051875 5.204375 4.04125 5.59625 3 6 C2.67 6.99 2.34 7.98 2 9 C1.731875 8.38125 1.46375 7.7625 1.1875 7.125 C0.04443152 4.7004767 0.04443152 4.7004767 -3 3 C-2.01 2.01 -1.02 1.02 0 0 Z " fill="#0B1A30" transform="translate(200,57)"/>
<path d="M0 0 C0.99 0.33 1.98 0.66 3 1 C3.33 2.32 3.66 3.64 4 5 C0.37 5 -3.26 5 -7 5 C-6.01 4.01 -5.02 3.02 -4 2 C-2.68 2 -1.36 2 0 2 C0 1.34 0 0.68 0 0 Z " fill="#394E68" transform="translate(76,186)"/>
<path d="M0 0 C0.66 0 1.32 0 2 0 C2.12375 0.61875 2.2475 1.2375 2.375 1.875 C2.87197356 4.19120832 2.87197356 4.19120832 5 6 C4.21625 6.45375 3.4325 6.9075 2.625 7.375 C-0.03698031 8.88428742 -0.03698031 8.88428742 -2 11 C-1.85957123 9.35369672 -1.71250671 7.70795821 -1.5625 6.0625 C-1.48128906 5.14597656 -1.40007812 4.22945313 -1.31640625 3.28515625 C-1 1 -1 1 0 0 Z " fill="#0C223E" transform="translate(98,123)"/>
<path d="M0 0 C2.31 0.33 4.62 0.66 7 1 C7.33 1.99 7.66 2.98 8 4 C7.030625 4.309375 6.06125 4.61875 5.0625 4.9375 C2.15934208 5.69523342 2.15934208 5.69523342 1 7 C-0.66617115 7.04063832 -2.33388095 7.042721 -4 7 C-2.68 6.34 -1.36 5.68 0 5 C0 3.35 0 1.7 0 0 Z " fill="#1F2F43" transform="translate(209,69)"/>
<path d="M0 0 C6.0546875 -0.1953125 6.0546875 -0.1953125 8 0 C8.66 0.66 9.32 1.32 10 2 C9.67 2.66 9.34 3.32 9 4 C7.02 4 5.04 4 3 4 C2.67 3.01 2.34 2.02 2 1 C1.34 0.67 0.68 0.34 0 0 Z " fill="#5B86BF" transform="translate(102,201)"/>
<path d="M0 0 C1.07536348 3.22609045 1.14375422 5.62177584 1 9 C0.67 9.66 0.34 10.32 0 11 C-0.66 11 -1.32 11 -2 11 C-2.33 11.99 -2.66 12.98 -3 14 C-4.25955231 10.22134307 -3.48087189 8.96588214 -2.0625 5.3125 C-1.68222656 4.31863281 -1.30195312 3.32476562 -0.91015625 2.30078125 C-0.60980469 1.54152344 -0.30945313 0.78226562 0 0 Z " fill="#41707D" transform="translate(69,68)"/>
<path d="M0 0 C0.66 0.66 1.32 1.32 2 2 C1.625 4.625 1.625 4.625 1 7 C-0.32 7.33 -1.64 7.66 -3 8 C-3.36923077 3.44615385 -3.36923077 3.44615385 -1.5 1.1875 C-1.005 0.795625 -0.51 0.40375 0 0 Z " fill="#113054" transform="translate(182,56)"/>
<path d="M0 0 C3.375 -0.1875 3.375 -0.1875 7 0 C7.66 0.99 8.32 1.98 9 3 C4.545 3.495 4.545 3.495 0 4 C0 2.68 0 1.36 0 0 Z " fill="#476995" transform="translate(76,57)"/>
<path d="M0 0 C1.70884005 1.62339805 3.37446717 3.29319053 5 5 C5 5.66 5 6.32 5 7 C4.34 7 3.68 7 3 7 C2.67 8.32 2.34 9.64 2 11 C0.19769832 7.17010894 -0.19622241 4.21878192 0 0 Z " fill="#3B5578" transform="translate(31,63)"/>
<path d="M0 0 C0 0.66 0 1.32 0 2 C-2.97 2.66 -5.94 3.32 -9 4 C-9 3.01 -9 2.02 -9 1 C-6.04335481 -0.4783226 -3.25770263 -0.06032783 0 0 Z " fill="#5B87BF" transform="translate(113,62)"/>
<path d="M0 0 C1 2 1 2 0.44140625 4.1640625 C0.15136719 4.97617188 -0.13867188 5.78828125 -0.4375 6.625 C-0.72496094 7.44226563 -1.01242188 8.25953125 -1.30859375 9.1015625 C-1.65083984 10.04128906 -1.65083984 10.04128906 -2 11 C-3.32 10.67 -4.64 10.34 -6 10 C-5.34 10 -4.68 10 -4 10 C-4.0825 9.0925 -4.165 8.185 -4.25 7.25 C-4 4 -4 4 -2 1.625 C-1.34 1.08875 -0.68 0.5525 0 0 Z " fill="#5679A7" transform="translate(136,214)"/>
<path d="M0 0 C0.99 0.33 1.98 0.66 3 1 C2.67 2.32 2.34 3.64 2 5 C0.02 5.33 -1.96 5.66 -4 6 C-2.84826645 3.53199953 -1.95216435 1.95216435 0 0 Z " fill="#123253" transform="translate(44,162)"/>
<path d="M0 0 C0.99 0.33 1.98 0.66 3 1 C2.2884375 1.61875 2.2884375 1.61875 1.5625 2.25 C-0.16266518 4.182185 -0.56584875 5.48192275 -1 8 C-1.66 7.67 -2.32 7.34 -3 7 C-3 5.68 -3 4.36 -3 3 C-4.65 3 -6.3 3 -8 3 C-8 2.67 -8 2.34 -8 2 C-6.865625 1.855625 -5.73125 1.71125 -4.5625 1.5625 C-1.19222799 1.38828522 -1.19222799 1.38828522 0 0 Z " fill="#0D1E36" transform="translate(122,126)"/>
<path d="M0 0 C4.875 4.75 4.875 4.75 6 7 C1.125 6.125 1.125 6.125 0 5 C-0.04063832 3.33382885 -0.042721 1.66611905 0 0 Z " fill="#09294E" transform="translate(112,219)"/>
<path d="M0 0 C2.31 0.66 4.62 1.32 7 2 C7 2.99 7 3.98 7 5 C4.61435923 4.42415568 2.33317216 3.77772405 0 3 C0 2.01 0 1.02 0 0 Z " fill="#5C88C2" transform="translate(93,198)"/>
<path d="M0 0 C4 2 8 4 12 6 C7.6822542 5.49202991 3.96697886 4.80317221 0 3 C0 2.01 0 1.02 0 0 Z " fill="#070B0E" transform="translate(76,159)"/>
<path d="M0 0 C1 2 1 2 1 5 C-0.98 5.99 -0.98 5.99 -3 7 C-3.33 6.01 -3.66 5.02 -4 4 C-2.68 2.68 -1.36 1.36 0 0 Z " fill="#262A2F" transform="translate(201,66)"/>
<path d="M0 0 C2.475 0.99 2.475 0.99 5 2 C4.67 2.99 4.34 3.98 4 5 C1.4375 6.1875 1.4375 6.1875 -1 7 C-0.67 4.69 -0.34 2.38 0 0 Z " fill="#936F93" transform="translate(175,62)"/>
<path d="M0 0 C1.98 0.495 1.98 0.495 4 1 C3.67 2.32 3.34 3.64 3 5 C1.68 4.67 0.36 4.34 -1 4 C-0.67 2.68 -0.34 1.36 0 0 Z " fill="#034277" transform="translate(52,168)"/>
<path d="M0 0 C0.66 0.33 1.32 0.66 2 1 C1.67 2.32 1.34 3.64 1 5 C2.32 5.33 3.64 5.66 5 6 C4.38125 6.12375 3.7625 6.2475 3.125 6.375 C0.80879168 6.87197356 0.80879168 6.87197356 -1 9 C-0.67 6.03 -0.34 3.06 0 0 Z " fill="#283545" transform="translate(41,169)"/>
<path d="M0 0 C0.99 0 1.98 0 3 0 C2.6875 1.875 2.6875 1.875 2 4 C1.01 4.66 0.02 5.32 -1 6 C-1.33 5.01 -1.66 4.02 -2 3 C-1.34 2.01 -0.68 1.02 0 0 Z " fill="#5079A9" transform="translate(152,96)"/>
<path d="M0 0 C0.33 0 0.66 0 1 0 C1.33 2.97 1.66 5.94 2 9 C1.01 9.33 0.02 9.66 -1 10 C-2.46726798 6.18510326 -1.43336419 3.70988378 0 0 Z " fill="#55A9BF" transform="translate(92,76)"/>
</svg>
